<svg width="20" height="17" viewBox="0 0 20 17" fill="none" xmlns="http://www.w3.org/2000/svg">
<path d="M3.09375 16.7734H1.86265e-08L5.63281 0.773437H9.21094L14.8516 16.7734H11.7578L7.48438 4.05469H7.35938L3.09375 16.7734ZM3.19531 10.5H11.6328V12.8281H3.19531V10.5ZM16.9199 16.7734V4.77344H19.748V16.7734H16.9199ZM18.3418 3.07031C17.8939 3.07031 17.5085 2.92187 17.1855 2.625C16.8626 2.32292 16.7012 1.96094 16.7012 1.53906C16.7012 1.11198 16.8626 0.749999 17.1855 0.453124C17.5085 0.151041 17.8939 -4.76837e-07 18.3418 -4.76837e-07C18.7949 -4.76837e-07 19.1803 0.151041 19.498 0.453124C19.821 0.749999 19.9824 1.11198 19.9824 1.53906C19.9824 1.96094 19.821 2.32292 19.498 2.625C19.1803 2.92187 18.7949 3.07031 18.3418 3.07031Z" fill="black"/>
</svg>
