<svg width="90" height="47" viewBox="0 0 90 47" fill="none" xmlns="http://www.w3.org/2000/svg">
<g filter="url(#filter0_d_415_373)">
<path d="M65 42H25C13.9778 42 5 33.0222 5 22C5 10.9778 13.9778 2 25 2H65C76.0222 2 85 10.9778 85 22C85 33.0222 76.0222 42 65 42Z" fill="#BE1E2D"/>
</g>
<path d="M26.5111 34C33.1385 34 38.5111 28.6274 38.5111 22C38.5111 15.3726 33.1385 10 26.5111 10C19.8837 10 14.5111 15.3726 14.5111 22C14.5111 28.6274 19.8837 34 26.5111 34Z" fill="white"/>
<path d="M44.3777 22.1778C44.3777 21.1111 44.5555 20.2222 44.8222 19.4222C45.0889 18.7111 45.5333 18 46.0666 17.4667C46.6 16.9333 47.1333 16.5778 47.8444 16.3111C48.5555 16.0445 49.2666 15.9556 50.2444 15.9556C52.0222 15.9556 53.4444 16.4889 54.5111 17.5556C55.5777 18.6222 56.1111 20.1333 56.1111 22.0889C56.1111 24.0445 55.5777 25.5556 54.5111 26.6222C53.4444 27.6889 52.0222 28.2222 50.3333 28.2222C48.5555 28.2222 47.1333 27.6889 46.0666 26.6222C44.9111 25.5556 44.3777 24.0445 44.3777 22.1778ZM53.5333 22C53.5333 20.7556 53.2666 19.7778 52.7333 18.9778C52.2 18.1778 51.4 17.9111 50.2444 17.9111C49.2666 17.9111 48.4666 18.2667 47.8444 18.9778C47.2222 19.6889 46.9555 20.6667 46.9555 22.0889C46.9555 23.4222 47.3111 24.4889 47.9333 25.2C48.5555 25.9111 49.3555 26.2667 50.3333 26.2667C51.3111 26.2667 52.1111 25.9111 52.7333 25.2C53.1777 24.4889 53.5333 23.4222 53.5333 22Z" fill="white"/>
<path d="M58.0667 16.1334H66.2444V18.1779H60.4667V21.0223H65.4444V23.0668H60.4667V28.1334H58.0667V16.1334Z" fill="white"/>
<path d="M68.0222 16.1334H76.1999V18.1779H70.4222V21.0223H75.3999V23.0668H70.4222V28.1334H68.0222V16.1334Z" fill="white"/>
<defs>
<filter id="filter0_d_415_373" x="0" y="0" width="90" height="50" filterUnits="userSpaceOnUse" color-interpolation-filters="sRGB">
<feFlood flood-opacity="0" result="BackgroundImageFix"/>
<feColorMatrix in="SourceAlpha" type="matrix" values="0 0 0 0 0 0 0 0 0 0 0 0 0 0 0 0 0 0 127 0" result="hardAlpha"/>
<feOffset dy="3"/>
<feGaussianBlur stdDeviation="2.5"/>
<feComposite in2="hardAlpha" operator="out"/>
<feColorMatrix type="matrix" values="0 0 0 0 0 0 0 0 0 0 0 0 0 0 0 0 0 0 0.15 0"/>
<feBlend mode="normal" in2="BackgroundImageFix" result="effect1_dropShadow_415_373"/>
<feBlend mode="normal" in="SourceGraphic" in2="effect1_dropShadow_415_373" result="shape"/>
</filter>
</defs>
</svg>
