<svg width="29" height="25" viewBox="0 0 29 25" fill="none" xmlns="http://www.w3.org/2000/svg">
<path d="M9.41667 4.08333H7.41667C5.57667 4.08333 4.08333 5.57667 4.08333 7.41667V9.41667M18.75 4.08333H20.75C22.59 4.08333 24.0833 5.57667 24.0833 7.41667V9.41667M9.41667 20.0833H7.41667C5.57667 20.0833 4.08333 18.59 4.08333 16.75V14.75M18.75 20.0833H20.75C22.59 20.0833 24.0833 18.59 24.0833 16.75V14.75M20.75 23.4167H7.41667C3.41667 23.4167 0.75 21.4167 0.75 16.75V7.41667C0.75 2.75 3.41667 0.75 7.41667 0.75H20.75C24.75 0.75 27.4167 2.75 27.4167 7.41667V16.75C27.4167 21.4167 24.75 23.4167 20.75 23.4167ZM18.0833 12.0833C18.0833 14.2925 16.2925 16.0833 14.0833 16.0833C11.8742 16.0833 10.0833 14.2925 10.0833 12.0833C10.0833 9.87419 11.8742 8.08333 14.0833 8.08333C16.2925 8.08333 18.0833 9.87419 18.0833 12.0833Z" stroke="#292D32" stroke-width="1.5" stroke-miterlimit="10" stroke-linecap="round" stroke-linejoin="round"/>
</svg>
