<svg width="16" height="22" viewBox="0 0 16 22" fill="none" xmlns="http://www.w3.org/2000/svg">
<path d="M2.46461 11.87C2.46461 11.87 5.03586 11.75 7.55669 12.75C10.0775 13.75 12.4555 11.86 12.4555 11.86M4.33002 20.75C0.817662 20.75 0.111829 18.22 1.25461 15.14L4.82579 5.49H4.5737C4.02752 5.49 3.52336 5.23 3.16204 4.8C2.79232 4.37 2.57384 3.77 2.57384 3.12C2.57384 1.82 3.46454 0.75 4.5653 0.75H10.5397C11.0943 0.75 11.59 1.02 11.9513 1.45C12.4219 2.01 12.6572 2.83 12.4807 3.7C12.2538 4.78 11.38 5.49 10.4472 5.49H10.3128L13.8588 15.15C14.9931 18.23 14.2537 20.75 10.775 20.75H4.33002Z" stroke="#292D32" stroke-width="1.5" stroke-linecap="round" stroke-linejoin="round"/>
</svg>
