<svg width="20" height="20" viewBox="0 0 20 20" fill="none" xmlns="http://www.w3.org/2000/svg">
<path d="M12.1 9.99999L16 6.09999C16.6 5.49999 16.6 4.59999 16 3.99999C15.4 3.39999 14.5 3.39999 13.9 3.99999L9.99999 7.89999L6.09999 3.99999C5.49999 3.39999 4.59999 3.39999 3.99999 3.99999C3.39999 4.59999 3.39999 5.49999 3.99999 6.09999L7.89999 9.99999L3.99999 13.9C3.39999 14.5 3.39999 15.4 3.99999 16C4.29999 16.3 4.69999 16.4 5.09999 16.4C5.49999 16.4 5.89999 16.3 6.19999 16L10.1 12.1L14 16C14.3 16.3 14.7 16.4 15.1 16.4C15.5 16.4 15.9 16.3 16.2 16C16.8 15.4 16.8 14.5 16.2 13.9L12.1 9.99999Z" fill="#828282"/>
</svg>
