<svg width="17" height="17" viewBox="0 0 17 17" fill="none" xmlns="http://www.w3.org/2000/svg">
<path opacity="0.7" d="M0 3C0 1.34315 1.34315 0 3 0H13.6667C15.3235 0 16.6667 1.34315 16.6667 3V13.6667C16.6667 15.3235 15.3235 16.6667 13.6667 16.6667H3C1.34315 16.6667 0 15.3235 0 13.6667V3Z" fill="#EC1C24"/>
<path d="M9.81668 8.31669L13.0056 5.1278C13.4389 4.69447 13.4389 4.03891 13.0056 3.60558C12.5722 3.17225 11.9167 3.17225 11.4833 3.60558L8.29446 6.79447L5.10557 3.60558C4.67224 3.17225 3.94446 3.17225 3.58335 3.60558C3.22224 4.03891 3.15001 4.69447 3.58335 5.1278L6.77224 8.31669L3.58335 11.5056C3.15001 11.9389 3.15001 12.5945 3.58335 13.0278C3.80001 13.2445 4.01668 13.3889 4.30557 13.3889C4.59446 13.3889 4.88335 13.3167 5.10001 13.1L8.2889 9.91113L11.4778 13.1C11.6945 13.3167 11.9833 13.3889 12.2722 13.3889C12.5611 13.3889 12.85 13.3167 13.0667 13.1C13.5 12.6667 13.5 12.0111 13.0667 11.5778L9.80557 8.31669H9.81668Z" fill="white"/>
</svg>
