<svg width="18" height="18" viewBox="0 0 18 18" fill="none" xmlns="http://www.w3.org/2000/svg">
<path opacity="0.7" d="M0.666687 3.66667C0.666687 2.00982 2.00983 0.666672 3.66669 0.666672H14.3334C15.9902 0.666672 17.3334 2.00982 17.3334 3.66667V14.3333C17.3334 15.9902 15.9902 17.3333 14.3334 17.3333H3.66669C2.00983 17.3333 0.666687 15.9902 0.666687 14.3333V3.66667Z" fill="url(#paint0_radial_144_70)"/>
<path d="M7.72222 13.1667C7.44444 13.1667 7.16667 13.1111 6.94444 12.8889L3.33333 9.27779C2.88889 8.83334 2.88889 8.22223 3.33333 7.77779C3.77778 7.33335 4.38889 7.33335 4.83333 7.77779L7.77778 10.7222L13.2778 5.22223C13.7222 4.77779 14.3333 4.77779 14.7778 5.22223C15.2222 5.66668 15.2222 6.27779 14.7778 6.72223L8.44444 12.9445C8.22222 13.0556 8 13.1667 7.72222 13.1667Z" fill="white"/>
<defs>
<radialGradient id="paint0_radial_144_70" cx="0" cy="0" r="1" gradientUnits="userSpaceOnUse" gradientTransform="translate(9.00002 9) scale(8.33333)">
<stop stop-color="#37B34A" stop-opacity="0.4"/>
<stop offset="1" stop-color="#37B34A"/>
</radialGradient>
</defs>
</svg>
