<svg width="21" height="24" viewBox="0 0 21 24" fill="none" xmlns="http://www.w3.org/2000/svg">
<path d="M11.2681 20.79L10.0833 21.7C8.98256 22.51 7.45325 21.6 7.45325 19.98V14.63C7.45325 13.92 7.11714 13.01 6.77263 12.51L3.54594 8.47C3.1174 7.96 2.78131 7.06001 2.78131 6.45001V4.13C2.78131 2.92 3.54598 2.01001 4.47869 2.01001H15.688C16.6207 2.01001 17.3853 2.92 17.3853 4.03V6.25C17.3853 7.06 16.9568 8.07001 16.5367 8.57001M13.9318 12.39C14.1839 13.47 14.8897 14.31 15.7972 14.61M14.3519 11.89L11.3773 15.43C11.2597 15.57 11.1505 15.83 11.1252 16.02L10.9656 17.37C10.9068 17.86 11.1925 18.2 11.6042 18.13L12.7386 17.94C12.8982 17.91 13.1251 17.78 13.2344 17.64L16.2089 14.1C16.7215 13.49 16.9652 12.78 16.2089 11.88C15.4611 10.99 14.8645 11.28 14.3519 11.89Z" stroke="#292D32" stroke-width="1.5" stroke-miterlimit="10" stroke-linecap="round" stroke-linejoin="round"/>
</svg>
