<svg width="24" height="24" viewBox="0 0 24 24" fill="none" xmlns="http://www.w3.org/2000/svg">
<path d="M5.10999 3H11.62C12.17 3 12.62 3.45 12.62 4V4.97C12.62 5.11 12.51 5.22 12.37 5.22H4.35999C4.21999 5.22 4.10999 5.11 4.10999 4.97V4C4.10999 3.45 4.55999 3 5.10999 3Z" fill="white"/>
<path d="M9.17 15.86C9.17 13.11 10.84 10.75 13.22 9.72C13.03 9.5 12.82 9.31 12.55 9.18L11.59 8.72V7.01C11.59 6.87 11.47 6.75 11.33 6.75H5.39C5.25 6.75 5.13 6.87 5.13 7.01V8.72L4.17 9.18C3.45 9.52 3 10.24 3 11.04V18.95C3 20.09 3.92 21.01 5.06 21.01H11.59C10.11 19.78 9.17 17.93 9.17 15.87V15.86Z" fill="white"/>
<path d="M15.86 21C18.6987 21 21 18.6987 21 15.86C21 13.0213 18.6987 10.72 15.86 10.72C13.0213 10.72 10.72 13.0213 10.72 15.86C10.72 18.6987 13.0213 21 15.86 21Z" fill="white"/>
<path d="M18.43 15.09H16.63V13.29C16.63 12.86 16.28 12.52 15.86 12.52C15.44 12.52 15.09 12.87 15.09 13.29V15.09H13.29C12.86 15.09 12.52 15.44 12.52 15.86C12.52 16.28 12.87 16.63 13.29 16.63H15.09V18.43C15.09 18.86 15.44 19.2 15.86 19.2C16.28 19.2 16.63 18.85 16.63 18.43V16.63H18.43C18.86 16.63 19.2 16.28 19.2 15.86C19.2 15.44 18.85 15.09 18.43 15.09Z" fill="#4D8B75"/>
</svg>
