<svg width="166" height="18" viewBox="0 0 166 18" fill="none" xmlns="http://www.w3.org/2000/svg">
<path d="M0.25 12.25C0.25 9.48858 2.48858 7.25 5.25 7.25H71.25V17.25H5.25C2.48858 17.25 0.25 15.0114 0.25 12.25Z" fill="#FF9B0E" stroke="#949494" stroke-width="0.5"/>
<path d="M165.25 12.25C165.25 9.48858 163.011 7.25 160.25 7.25H93.25V17.25H160.25C163.011 17.25 165.25 15.0114 165.25 12.25Z" fill="#2D9AFF" stroke="#949494" stroke-width="0.5"/>
<rect x="71.25" y="7.25" width="22" height="10" fill="#3EFFA2" stroke="#949494" stroke-width="0.5"/>
<path d="M69.25 10.25H73.25V12.5357L71.25 14.25L69.25 12.5357V10.25Z" fill="white" stroke="#949494" stroke-width="0.5" stroke-linejoin="round"/>
<path d="M91.25 10.25H95.25V12.5357L93.25 14.25L91.25 12.5357V10.25Z" fill="white" stroke="#949494" stroke-width="0.5" stroke-linejoin="round"/>
<path d="M79.25 0.25H85.25V8.25L82.25 11.25L79.25 8.25V0.25Z" fill="white" stroke="#949494" stroke-width="0.5" stroke-linejoin="round"/>
</svg>
