<svg width="24" height="24" viewBox="0 0 24 24" fill="none" xmlns="http://www.w3.org/2000/svg">
<path d="M12.74 17.07C15.5401 17.07 17.81 14.8001 17.81 12C17.81 9.19991 15.5401 6.92999 12.74 6.92999C9.93991 6.92999 7.67 9.19991 7.67 12C7.67 14.8001 9.93991 17.07 12.74 17.07Z" fill="white"/>
<path d="M15.36 13.01H12.5C12.15 13.01 11.87 12.73 11.87 12.38V8.91C11.87 8.56 12.15 8.28 12.5 8.28C12.85 8.28 13.13 8.56 13.13 8.91V11.74H15.36C15.71 11.74 15.99 12.02 15.99 12.37C15.99 12.72 15.71 13 15.36 13V13.01Z" fill="#4D8B75"/>
<path d="M12.74 3.75C8.35 3.75 4.75 7.2 4.5 11.52L3.87 10.87C3.68 10.67 3.36 10.66 3.15 10.86C2.95 11.05 2.94 11.38 3.14 11.58L4.62 13.11C4.72 13.21 4.85 13.26 4.98 13.26C5.11 13.26 5.25 13.2 5.34 13.11L6.82 11.58C7.01 11.38 7.01 11.06 6.81 10.86C6.61 10.67 6.29 10.67 6.09 10.87L5.51 11.47C5.78 7.73 8.91 4.76 12.73 4.76C16.55 4.76 19.98 8.01 19.98 12C19.98 15.99 16.73 19.24 12.73 19.24C12.45 19.24 12.22 19.47 12.22 19.75C12.22 20.03 12.45 20.26 12.73 20.26C17.28 20.26 20.99 16.56 20.99 12.01C20.99 7.46 17.29 3.75 12.74 3.75Z" fill="white"/>
</svg>
