<svg width="72" height="41" viewBox="0 0 72 41" fill="none" xmlns="http://www.w3.org/2000/svg">
<g clip-path="url(#clip0_198_40)">
<path d="M71.4 35.7H48.3C48.3 28.74 42.66 23.1 35.7 23.1C28.74 23.1 23.1 28.74 23.1 35.7H0C0 15.98 15.98 0 35.7 0C55.42 0 71.4 15.98 71.4 35.7Z" fill="#E2E2E2"/>
<path d="M25.72 18.57C19.61 22.05 15.48 28.63 15.48 36.14H5.62C5.62 24.98 11.73 15.22 20.79 10.03L25.72 18.57Z" fill="#0066FF" stroke="white" stroke-width="1.5" stroke-miterlimit="10"/>
<path d="M65.7801 36.14H55.9201C55.9201 28.72 51.9101 22.23 45.9301 18.72L50.8601 10.18C59.7801 15.4 65.7801 25.08 65.7801 36.14Z" fill="#FF2727" stroke="white" stroke-width="1.5" stroke-miterlimit="10"/>
<path d="M50.86 10.18L45.93 18.72C42.93 16.95 39.43 15.93 35.7 15.93C31.97 15.93 28.67 16.9 25.72 18.57L20.79 10.03C25.19 7.51001 30.28 6.07001 35.7 6.07001C41.12 6.07001 46.4 7.57001 50.86 10.18Z" fill="#00FF85" stroke="white" stroke-width="1.5" stroke-miterlimit="10"/>
<path d="M18.1863 27.4018L17.237 24.7197L20.0381 24.2217L37.2175 34.2258L35.3657 37.4059L18.1863 27.4018Z" fill="#8C0000"/>
<path d="M17.237 24.7197L36.2916 35.8158L35.3657 37.4059L18.1863 27.4018L17.237 24.7197Z" fill="#C60000"/>
<path d="M40.1631 38.0703C41.6083 35.5885 40.768 32.4051 38.2862 30.9599C35.8045 29.5147 32.6211 30.355 31.1759 32.8367C29.7306 35.3185 30.5709 38.5019 33.0527 39.9471C35.5344 41.3923 38.7179 40.552 40.1631 38.0703Z" fill="#424242"/>
<path d="M39.1261 37.4664C40.2378 35.5574 39.5914 33.1086 37.6824 31.9969C35.7733 30.8852 33.3245 31.5316 32.2129 33.4406C31.1012 35.3496 31.7475 37.7984 33.6566 38.9101C35.5656 40.0218 38.0144 39.3754 39.1261 37.4664Z" fill="#707070"/>
<path d="M37.8298 36.7116C38.5246 35.5184 38.1206 33.9879 36.9275 33.2931C35.7343 32.5983 34.2038 33.0023 33.509 34.1954C32.8142 35.3886 33.2182 36.9191 34.4114 37.6139C35.6045 38.3087 37.135 37.9047 37.8298 36.7116Z" fill="#A8A8A8"/>
</g>
<defs>
<clipPath id="clip0_198_40">
<rect width="71.4" height="40.66" fill="white"/>
</clipPath>
</defs>
</svg>
