<svg width="72" height="41" viewBox="0 0 72 41" fill="none" xmlns="http://www.w3.org/2000/svg">
<g clip-path="url(#clip0_198_101)">
<path d="M71.4 35.7H48.3C48.3 28.74 42.66 23.1 35.7 23.1C28.74 23.1 23.1 28.74 23.1 35.7H0C0 15.98 15.98 0 35.7 0C55.42 0 71.4 15.98 71.4 35.7Z" fill="#E2E2E2"/>
<path d="M25.72 18.57C19.61 22.05 15.48 28.63 15.48 36.14H5.62C5.62 24.98 11.73 15.22 20.79 10.03L25.72 18.57Z" fill="#0066FF" stroke="white" stroke-width="1.5" stroke-miterlimit="10"/>
<path d="M65.7801 36.14H55.9201C55.9201 28.72 51.9101 22.23 45.9301 18.72L50.8601 10.18C59.7801 15.4 65.7801 25.08 65.7801 36.14Z" fill="#FF2727" stroke="white" stroke-width="1.5" stroke-miterlimit="10"/>
<path d="M50.86 10.18L45.93 18.72C42.93 16.95 39.43 15.93 35.7 15.93C31.97 15.93 28.67 16.9 25.72 18.57L20.79 10.03C25.19 7.51001 30.28 6.07001 35.7 6.07001C41.12 6.07001 46.4 7.57001 50.86 10.18Z" fill="#00FF85" stroke="white" stroke-width="1.5" stroke-miterlimit="10"/>
<path d="M33.86 16.3L35.7 14.13L37.54 16.3V36.18H33.86V16.3Z" fill="#8C0000"/>
<path d="M35.7 14.13V36.18H33.86V16.3L35.7 14.13Z" fill="#C60000"/>
<path d="M35.7 40.66C38.5719 40.66 40.9 38.3319 40.9 35.46C40.9 32.5881 38.5719 30.26 35.7 30.26C32.8281 30.26 30.5 32.5881 30.5 35.46C30.5 38.3319 32.8281 40.66 35.7 40.66Z" fill="#424242"/>
<path d="M35.7 39.46C37.9091 39.46 39.7 37.6691 39.7 35.46C39.7 33.2509 37.9091 31.46 35.7 31.46C33.4908 31.46 31.7 33.2509 31.7 35.46C31.7 37.6691 33.4908 39.46 35.7 39.46Z" fill="#707070"/>
<path d="M35.7 37.96C37.0807 37.96 38.2 36.8407 38.2 35.46C38.2 34.0793 37.0807 32.96 35.7 32.96C34.3192 32.96 33.2 34.0793 33.2 35.46C33.2 36.8407 34.3192 37.96 35.7 37.96Z" fill="#A8A8A8"/>
</g>
<defs>
<clipPath id="clip0_198_101">
<rect width="71.4" height="40.66" fill="white"/>
</clipPath>
</defs>
</svg>
