<svg width="72" height="41" viewBox="0 0 72 41" fill="none" xmlns="http://www.w3.org/2000/svg">
<g clip-path="url(#clip0_198_56)">
<path d="M71.4 35.7H48.3C48.3 28.74 42.66 23.1 35.7 23.1C28.74 23.1 23.1 28.74 23.1 35.7H0C0 15.98 15.98 0 35.7 0C55.42 0 71.4 15.98 71.4 35.7Z" fill="#E2E2E2"/>
<path d="M25.72 18.57C19.61 22.05 15.48 28.63 15.48 36.14H5.62C5.62 24.98 11.73 15.22 20.79 10.03L25.72 18.57Z" fill="#0066FF" stroke="white" stroke-width="1.5" stroke-miterlimit="10"/>
<path d="M65.7801 36.14H55.9201C55.9201 28.72 51.9101 22.23 45.9301 18.72L50.8601 10.18C59.7801 15.4 65.7801 25.08 65.7801 36.14Z" fill="#FF2727" stroke="white" stroke-width="1.5" stroke-miterlimit="10"/>
<path d="M50.86 10.18L45.93 18.72C42.93 16.95 39.43 15.93 35.7 15.93C31.97 15.93 28.67 16.9 25.72 18.57L20.79 10.03C25.19 7.51001 30.28 6.07001 35.7 6.07001C41.12 6.07001 46.4 7.57001 50.86 10.18Z" fill="#00FF85" stroke="white" stroke-width="1.5" stroke-miterlimit="10"/>
<path d="M51.4776 24.3637L54.2703 24.9074L53.2774 27.5736L35.9373 37.2965L34.1375 34.0866L51.4776 24.3637Z" fill="#8C0000"/>
<path d="M54.2703 24.9074L35.0374 35.6915L34.1375 34.0866L51.4776 24.3637L54.2703 24.9074Z" fill="#C60000"/>
<path d="M31.1298 37.8826C32.5343 40.3876 35.7036 41.2797 38.2086 39.8751C40.7136 38.4705 41.6056 35.3012 40.201 32.7962C38.7965 30.2913 35.6272 29.3992 33.1222 30.8038C30.6172 32.2084 29.7252 35.3777 31.1298 37.8826Z" fill="#424242"/>
<path d="M32.1764 37.2958C33.2568 39.2227 35.6948 39.9088 37.6217 38.8284C39.5486 37.748 40.2348 35.31 39.1543 33.3831C38.0739 31.4562 35.6359 30.77 33.709 31.8505C31.7821 32.9309 31.096 35.3689 32.1764 37.2958Z" fill="#707070"/>
<path d="M33.4848 36.5621C34.1601 37.7664 35.6838 38.1953 36.8881 37.52C38.0924 36.8448 38.5213 35.3211 37.846 34.1167C37.1707 32.9124 35.647 32.4836 34.4427 33.1588C33.2384 33.8341 32.8095 35.3578 33.4848 36.5621Z" fill="#A8A8A8"/>
</g>
<defs>
<clipPath id="clip0_198_56">
<rect width="71.4" height="40.66" fill="white"/>
</clipPath>
</defs>
</svg>
