<svg width="24" height="24" viewBox="0 0 24 24" fill="none" xmlns="http://www.w3.org/2000/svg">
<path d="M15.5997 15.585C17.5836 13.6012 17.5836 10.3847 15.5997 8.40083C13.6159 6.41697 10.3994 6.41697 8.41553 8.40083C6.43166 10.3847 6.43166 13.6012 8.41553 15.585C10.3994 17.5689 13.6159 17.5689 15.5997 15.585Z" fill="#4D8B75"/>
<path d="M3.64 11.37C3.28 11.37 3 11.65 3 12C3 12.35 3.28 12.64 3.64 12.64H5.44C5.42 12.43 5.41 12.21 5.41 12C5.41 11.79 5.42 11.57 5.44 11.37H3.64Z" fill="#4D8B75"/>
<path d="M6.92001 7.81C7.17001 7.49 7.48002 7.18 7.80001 6.91L6.53001 5.64C6.29001 5.39 5.88001 5.39 5.64001 5.64C5.39001 5.88 5.39001 6.28 5.64001 6.53L6.92001 7.81Z" fill="#4D8B75"/>
<path d="M5.64001 17.47C5.39001 17.71 5.39001 18.12 5.64001 18.36C5.76001 18.49 5.92001 18.55 6.09001 18.55C6.26001 18.55 6.41001 18.49 6.54001 18.36L7.81001 17.09C7.49001 16.81 7.19001 16.51 6.93001 16.2L5.65001 17.47H5.64001Z" fill="#4D8B75"/>
<path d="M12.63 5.43V3.63C12.63 3.28 12.35 3 12 3C11.65 3 11.36 3.28 11.36 3.63V5.43C11.57 5.41 11.79 5.4 12 5.4C12.21 5.4 12.43 5.41 12.63 5.43Z" fill="#4D8B75"/>
<path d="M11.37 18.56V20.37C11.37 20.72 11.65 21 12.01 21C12.37 21 12.64 20.72 12.64 20.37V18.56C12.44 18.58 12.22 18.59 12.01 18.59C11.8 18.59 11.58 18.58 11.37 18.56Z" fill="#4D8B75"/>
<path d="M17.09 16.2C16.83 16.52 16.52 16.82 16.2 17.09L17.47 18.36C17.6 18.49 17.75 18.55 17.93 18.55C18.09 18.55 18.24 18.49 18.38 18.36C18.62 18.12 18.62 17.71 18.38 17.47L17.1 16.2H17.09Z" fill="#4D8B75"/>
<path d="M17.47 5.64L16.2 6.91C16.52 7.18 16.83 7.48 17.09 7.81L18.37 6.53C18.61 6.28 18.61 5.88 18.37 5.64C18.12 5.39 17.72 5.39 17.47 5.64Z" fill="#4D8B75"/>
<path d="M20.37 11.37H18.57C18.59 11.57 18.6 11.79 18.6 12C18.6 12.21 18.59 12.43 18.57 12.64H20.37C20.72 12.64 21 12.36 21 12C21 11.64 20.72 11.37 20.37 11.37Z" fill="#4D8B75"/>
</svg>
