<svg width="24" height="24" viewBox="0 0 24 24" fill="none" xmlns="http://www.w3.org/2000/svg">
<path d="M17.5 10H17V7C17 4.24 14.76 2 12 2C9.24 2 7 4.24 7 7V10H6.5C5.4 10 4.5 10.9 4.5 12V20C4.5 21.1 5.4 22 6.5 22H17.5C18.6 22 19.5 21.1 19.5 20V12C19.5 10.9 18.6 10 17.5 10ZM12.75 16.29V18.25C12.75 18.39 12.64 18.5 12.5 18.5H11.5C11.36 18.5 11.25 18.39 11.25 18.25V16.29C10.8 16.03 10.5 15.55 10.5 15C10.5 14.17 11.17 13.5 12 13.5C12.83 13.5 13.5 14.17 13.5 15C13.5 15.55 13.2 16.03 12.75 16.29ZM15 10H9V7C9 5.34 10.34 4 12 4C13.66 4 15 5.34 15 7V10Z" fill="white"/>
</svg>
