<svg width="28" height="36" viewBox="0 0 28 36" fill="none" xmlns="http://www.w3.org/2000/svg">
<path d="M23.625 14.5H22.75V9.25C22.75 4.42 18.83 0.5 14 0.5C9.17 0.5 5.25 4.42 5.25 9.25V14.5H4.375C2.45 14.5 0.875 16.075 0.875 18V32C0.875 33.925 2.45 35.5 4.375 35.5H23.625C25.55 35.5 27.125 33.925 27.125 32V18C27.125 16.075 25.55 14.5 23.625 14.5ZM15.3125 25.5075V28.9375C15.3125 29.1825 15.12 29.375 14.875 29.375H13.125C12.88 29.375 12.6875 29.1825 12.6875 28.9375V25.5075C11.9 25.0525 11.375 24.2125 11.375 23.25C11.375 21.7975 12.5475 20.625 14 20.625C15.4525 20.625 16.625 21.7975 16.625 23.25C16.625 24.2125 16.1 25.0525 15.3125 25.5075ZM19.25 14.5H8.75V9.25C8.75 6.345 11.095 4 14 4C16.905 4 19.25 6.345 19.25 9.25V14.5Z" fill="#1E1E1E"/>
</svg>
