<svg width="415" height="161" viewBox="0 0 415 161" fill="none" xmlns="http://www.w3.org/2000/svg">
<g clip-path="url(#clip0_956_135)">
<path d="M257.89 41.8276H235.495C216.832 41.8276 201.562 56.934 201.562 75.733V99.5674H231.762C234.816 99.5674 237.531 96.8818 237.531 93.8606C237.531 90.8393 235.155 88.1537 231.762 88.1537H213.438V76.0687C213.438 63.9836 223.279 53.9127 235.834 53.9127H246.693V92.5178C246.693 115.009 228.029 133.473 205.294 133.473V144.886C234.477 144.886 258.23 121.388 257.89 91.8464V41.8276Z" fill="#379E79"/>
<path d="M370.208 3.55848C370.208 3.22278 369.869 2.88708 370.208 2.21569C369.53 0.537209 367.494 -0.469881 365.797 0.201512L318.63 17.322V24.3717L368.172 6.57974C369.53 6.24405 370.208 4.90126 370.208 3.55848Z" fill="#379E79"/>
<path d="M395.726 43.8421C393.113 41.6937 390.297 39.7802 387.277 38.1689C385.784 37.3632 384.223 36.6247 382.662 35.9533C376.316 33.2677 369.36 31.7906 362.065 31.7906H352.224L405.838 12.6559C408.213 11.9845 409.571 9.63467 409.571 7.28479C409.571 6.6134 409.571 5.94201 409.231 4.59922C408.213 1.57795 404.82 0.235169 401.766 1.24226L318.291 31.4549V31.7906V43.2043H362.065C384.8 43.2043 403.463 61.6676 403.463 84.1593V88.1876H292.502V60.6605C292.502 57.6393 290.127 54.9537 286.733 54.9537C283.34 54.9537 280.965 57.3036 280.965 60.6605V110.679C280.965 127.8 270.106 142.906 254.158 148.949V161.034C276.554 154.656 292.502 133.842 292.502 110.679V99.6013H415V84.1593C415 68.113 407.501 53.5438 395.726 43.8757V43.8421Z" fill="#379E79"/>
<path d="M179.166 55.2557C176.112 55.2557 173.397 57.9412 173.397 60.9625V80.4329C173.397 84.797 169.665 88.4896 164.914 88.4896H137.768V84.1256C137.768 55.5914 114.015 31.7569 84.8324 31.7569H75.908L127.927 12.9579C130.303 12.2865 131.66 9.93667 131.66 7.58679C131.66 6.9154 131.66 6.24401 131.321 5.23692C130.303 2.21565 126.909 0.872864 123.855 1.87995L41.0589 31.7569V43.1706H42.9591L43.0948 43.5063L44.045 43.1706H84.8324C107.567 43.1706 126.231 61.6339 126.231 84.1256V88.1539H0V99.5676H131.999V99.9033H164.914C175.773 99.9033 184.935 91.1752 184.935 80.4329V60.9625C184.935 57.9412 182.559 55.2557 179.166 55.2557Z" fill="#379E79"/>
<path d="M152.698 42.4991H178.827C182.22 42.4991 184.935 39.8136 184.595 36.7923C184.595 33.771 182.22 31.0854 178.827 31.0854H152.698C149.644 31.0854 146.93 33.771 146.93 36.7923C146.93 39.8136 149.305 42.4991 152.698 42.4991Z" fill="#379E79"/>
<path d="M166.611 125.416L131.999 137.837C130.303 138.509 129.285 140.523 129.963 142.201C130.642 143.88 132.678 144.887 134.374 144.215L168.986 131.795C170.683 131.123 171.701 129.109 171.022 127.431C170.343 125.752 168.307 124.745 166.611 125.416Z" fill="#379E79"/>
</g>
<defs>
<clipPath id="clip0_956_135">
<rect width="415" height="161" fill="white"/>
</clipPath>
</defs>
</svg>
