<svg width="49" height="19" viewBox="0 0 49 19" fill="none" xmlns="http://www.w3.org/2000/svg">
<g clip-path="url(#clip0_1_690)">
<path d="M30.4497 4.93619H27.8054C25.6018 4.93619 23.7989 6.71892 23.7989 8.93744V11.7502H27.3647C27.7253 11.7502 28.0458 11.4333 28.0458 11.0767C28.0458 10.7202 27.7653 10.4032 27.3647 10.4032H25.2011V8.97706C25.2011 7.55087 26.363 6.36238 27.8455 6.36238H29.1276V10.9183C29.1276 13.5726 26.924 15.7514 24.2396 15.7514V17.0984C27.6852 17.0984 30.4898 14.3253 30.4497 10.839V4.93619Z" fill="white"/>
<path d="M43.7114 0.419944C43.7114 0.380328 43.6713 0.340711 43.7114 0.261479C43.6312 0.0633969 43.3908 -0.0554521 43.1905 0.0237805L37.6214 2.04421V2.87616L43.471 0.776491C43.6312 0.736875 43.7114 0.578409 43.7114 0.419944Z" fill="white"/>
<path d="M46.7243 5.17391C46.4158 4.92036 46.0832 4.69455 45.7267 4.50439C45.5504 4.40931 45.3661 4.32216 45.1818 4.24292C44.4325 3.92599 43.6112 3.75168 42.7498 3.75168H41.5879L47.9182 1.49355C48.1987 1.41432 48.359 1.137 48.359 0.859688C48.359 0.780455 48.359 0.701223 48.3189 0.542757C48.1987 0.18621 47.798 0.0277447 47.4375 0.146594L37.5814 3.71206V3.75168V5.09864H42.7498C45.4342 5.09864 47.6378 7.27754 47.6378 9.93183V10.4072H34.5364V7.15869C34.5364 6.80214 34.2559 6.48521 33.8553 6.48521C33.4546 6.48521 33.1742 6.76252 33.1742 7.15869V13.0615C33.1742 15.082 31.8921 16.8647 30.009 17.5778V19.004C32.6533 18.2513 34.5364 15.7951 34.5364 13.0615V11.7542H49V9.93183C49 8.03817 48.1146 6.31882 46.7243 5.17787V5.17391Z" fill="white"/>
<path d="M21.1545 6.52085C20.7939 6.52085 20.4734 6.83778 20.4734 7.19433V9.49207C20.4734 10.0071 20.0327 10.4429 19.4718 10.4429H16.2666V9.92786C16.2666 6.56047 13.462 3.74771 10.0164 3.74771H8.96263L15.1047 1.52919C15.3851 1.44996 15.5454 1.17264 15.5454 0.895328C15.5454 0.816095 15.5454 0.736863 15.5053 0.618014C15.3851 0.261466 14.9845 0.103001 14.6239 0.22185L4.84791 3.74771V5.09466H5.07228L5.08831 5.13428L5.20049 5.09466H10.0164C12.7007 5.09466 14.9043 7.27356 14.9043 9.92786V10.4033H0V11.7502H15.5854V11.7898H19.4718C20.7539 11.7898 21.8356 10.7598 21.8356 9.49207V7.19433C21.8356 6.83778 21.5552 6.52085 21.1545 6.52085Z" fill="white"/>
<path d="M18.0294 5.01544H21.1145C21.5151 5.01544 21.8357 4.69851 21.7956 4.34197C21.7956 3.98542 21.5151 3.66849 21.1145 3.66849H18.0294C17.6689 3.66849 17.3483 3.98542 17.3483 4.34197C17.3483 4.69851 17.6288 5.01544 18.0294 5.01544Z" fill="white"/>
<path d="M19.6721 14.8007L15.5854 16.2665C15.3851 16.3457 15.2649 16.5834 15.345 16.7815C15.4252 16.9796 15.6656 17.0984 15.8659 17.0192L19.9526 15.5534C20.1529 15.4741 20.2731 15.2364 20.193 15.0384C20.1128 14.8403 19.8724 14.7214 19.6721 14.8007Z" fill="white"/>
</g>
<defs>
<clipPath id="clip0_1_690">
<rect width="49" height="19" fill="white"/>
</clipPath>
</defs>
</svg>
