<svg width="167" height="15" viewBox="0 0 167 15" fill="none" xmlns="http://www.w3.org/2000/svg">
<path d="M0.25 9.25C0.25 6.48858 2.48858 4.25 5.25 4.25H72.25V14.25H5.25C2.48857 14.25 0.25 12.0114 0.25 9.25Z" fill="#2D9AFF" stroke="#949494" stroke-width="0.5"/>
<path d="M166.25 9.25C166.25 6.48858 164.011 4.25 161.25 4.25H94.25V14.25H161.25C164.011 14.25 166.25 12.0114 166.25 9.25Z" fill="#FF9B0E" stroke="#949494" stroke-width="0.5"/>
<path d="M72.25 4.25H94.25V14.25H72.25V4.25Z" fill="#3EFFA2" stroke="#949494" stroke-width="0.5"/>
<path d="M54.25 0.25H60.25V8.25L57.25 11.25L54.25 8.25V0.25Z" fill="white" stroke="#949494" stroke-width="0.5" stroke-linejoin="round"/>
<path d="M70.25 7.25H74.25V9.53571L72.25 11.25L70.25 9.53571V7.25Z" fill="white" stroke="#949494" stroke-width="0.5" stroke-linejoin="round"/>
<path d="M92.25 7.25H96.25V9.53571L94.25 11.25L92.25 9.53571V7.25Z" fill="white" stroke="#949494" stroke-width="0.5" stroke-linejoin="round"/>
</svg>
