<svg width="310" height="253" viewBox="0 0 310 253" fill="none" xmlns="http://www.w3.org/2000/svg">
<path d="M107.688 18.1611C104.999 18.1611 103.362 17.5721 102.779 16.394V16.3994C102.618 16.0879 102.537 15.7441 102.537 15.3682C102.537 14.8096 102.727 14.2008 103.106 13.542C103.164 13.4417 103.208 13.3612 103.241 13.3003L104.24 14.1382C104.118 14.3065 104.005 14.5052 103.901 14.7344C103.801 14.96 103.737 15.182 103.708 15.4004C103.701 15.4648 103.697 15.5114 103.697 15.54C103.697 15.6331 103.713 15.7137 103.746 15.7817C103.9 16.0897 104.324 16.335 105.019 16.5176C105.681 16.6895 106.514 16.7754 107.516 16.7754C109.26 16.7754 110.587 16.548 111.496 16.0933C111.471 15.9679 111.441 15.848 111.405 15.7334C111.373 15.6152 111.33 15.4935 111.276 15.3682C111.222 15.2428 111.177 15.1372 111.142 15.0513C111.106 14.9653 111.05 14.8543 110.975 14.7183C110.9 14.5822 110.846 14.4855 110.814 14.4282C110.782 14.3709 110.719 14.2671 110.626 14.1167C110.536 13.9627 110.481 13.866 110.459 13.8267L111.609 13.0801C111.623 13.0801 111.657 13.1338 111.711 13.2412C112.144 14.1042 112.441 14.8704 112.603 15.54C112.653 15.7513 112.678 15.9303 112.678 16.0771C112.678 16.3385 112.62 16.5462 112.506 16.7002C112.395 16.8542 112.223 17.0046 111.99 17.1514C111.342 17.5452 110.375 17.8424 109.09 18.043C108.574 18.1217 108.107 18.1611 107.688 18.1611ZM107.43 20.9595L106.399 19.9282L107.425 18.9023L108.456 19.9336L107.43 20.9595ZM114.38 18.1504C114.459 16.6751 114.499 15.54 114.499 14.7451C114.499 12.9727 114.414 11.5798 114.246 10.5664C114.239 10.5234 114.221 10.4017 114.192 10.2012L115.573 9.73389C115.601 9.84489 115.623 9.96663 115.637 10.0991C115.652 10.2316 115.664 10.3874 115.675 10.5664C115.686 10.7419 115.696 10.8815 115.707 10.9854C115.822 12.1419 115.879 13.3988 115.879 14.7559C115.879 15.916 115.848 16.9777 115.788 17.9409L114.38 18.1504ZM112.952 9.15918C112.952 9.12337 112.955 9.08757 112.962 9.05176C112.966 9.01595 112.977 8.97656 112.995 8.93359C113.013 8.89062 113.025 8.86019 113.032 8.84229C113.039 8.82438 113.056 8.78857 113.081 8.73486C113.109 8.68115 113.125 8.65251 113.129 8.64893C113.358 8.19059 113.689 7.9113 114.123 7.81104C114.173 7.80387 114.216 7.80029 114.251 7.80029C114.269 7.80029 114.291 7.80029 114.316 7.80029C114.341 7.79671 114.359 7.79492 114.37 7.79492C114.692 7.79492 115.054 7.90234 115.455 8.11719C115.544 8.16732 115.634 8.19238 115.723 8.19238C115.78 8.19238 115.838 8.18164 115.895 8.16016C115.952 8.13867 115.999 8.11719 116.035 8.0957C116.074 8.07064 116.121 8.02946 116.174 7.97217C116.232 7.91488 116.269 7.87549 116.287 7.854C116.309 7.83252 116.348 7.78597 116.405 7.71436C116.463 7.64274 116.493 7.60335 116.497 7.59619L117.222 8.06348C117.089 8.32487 116.844 8.57373 116.486 8.81006C116.246 8.96761 116.004 9.04639 115.761 9.04639C115.61 9.04639 115.456 9.02669 115.299 8.9873C115.141 8.94792 115.016 8.90853 114.923 8.86914C114.83 8.82617 114.71 8.76888 114.563 8.69727C114.484 8.65788 114.402 8.63818 114.316 8.63818C114.065 8.63818 113.904 8.83512 113.833 9.229C113.811 9.33285 113.797 9.39551 113.79 9.41699L112.952 9.15918Z" fill="#1E1E1E"/>
<mask id="path-2-inside-1_198_193" fill="white">
<path fill-rule="evenodd" clip-rule="evenodd" d="M91 7H68V17H86V42.5C86 45.2614 88.2386 47.5 91 47.5C93.7614 47.5 96 45.2614 96 42.5L96 12.0062C96 12.0042 96 12.0021 96 12C96 11.8274 95.9913 11.6569 95.9742 11.4888C95.7181 8.9675 93.5888 7 91 7Z"/>
</mask>
<path fill-rule="evenodd" clip-rule="evenodd" d="M91 7H68V17H86V42.5C86 45.2614 88.2386 47.5 91 47.5C93.7614 47.5 96 45.2614 96 42.5L96 12.0062C96 12.0042 96 12.0021 96 12C96 11.8274 95.9913 11.6569 95.9742 11.4888C95.7181 8.9675 93.5888 7 91 7Z" fill="#E8E8E8"/>
<path d="M68 7V6.5H67.5V7H68ZM68 17H67.5V17.5H68V17ZM86 17H86.5V16.5H86V17ZM86 42.5H85.5H86ZM96 42.5H96.5H96ZM96 12.0062H95.5H96ZM95.9742 11.4888L95.4767 11.5393L95.4767 11.5393L95.9742 11.4888ZM68 7.5H91V6.5H68V7.5ZM68.5 17V7H67.5V17H68.5ZM86 16.5H68V17.5H86V16.5ZM86.5 42.5V17H85.5V42.5H86.5ZM91 47C88.5147 47 86.5 44.9853 86.5 42.5H85.5C85.5 45.5376 87.9624 48 91 48V47ZM95.5 42.5C95.5 44.9853 93.4853 47 91 47V48C94.0376 48 96.5 45.5376 96.5 42.5H95.5ZM95.5 12.0062L95.5 42.5H96.5L96.5 12.0062H95.5ZM95.5 12C95.5 12.0008 95.5 12.0016 95.5 12.0027C95.5 12.0037 95.5 12.0049 95.5 12.0062H96.5C96.5 12.0055 96.5 12.0047 96.5 12.0036C96.5 12.0026 96.5 12.0013 96.5 12H95.5ZM95.4767 11.5393C95.4921 11.6906 95.5 11.8443 95.5 12H96.5C96.5 11.8105 96.4904 11.6231 96.4716 11.4383L95.4767 11.5393ZM91 7.5C93.3296 7.5 95.2464 9.27068 95.4767 11.5393L96.4716 11.4383C96.1899 8.66432 93.848 6.5 91 6.5V7.5Z" fill="#9F9F9F" mask="url(#path-2-inside-1_198_193)"/>
<rect x="37.25" y="0.25" width="31.5" height="23.5" rx="4.75" fill="#E8E8E8" stroke="#9F9F9F" stroke-width="0.5"/>
<path d="M47.4629 91.1611C46.2526 91.1611 45.3109 90.7511 44.6377 89.9312C44.4408 90.1854 44.1847 90.3984 43.8696 90.5703C43.5545 90.7386 43.1875 90.8639 42.7686 90.9463C42.3496 91.0286 41.9378 91.0841 41.5332 91.1128C41.1322 91.145 40.6702 91.1611 40.1475 91.1611H40.1421C38.9497 91.1396 37.9507 90.9875 37.145 90.7046C36.3644 90.3966 35.8345 89.9598 35.5552 89.394V89.3994C35.394 89.0879 35.3135 88.7441 35.3135 88.3682C35.3135 87.8096 35.5033 87.2008 35.8828 86.542C35.9401 86.4417 35.9849 86.3612 36.0171 86.3003L37.0161 87.1382C36.8944 87.3065 36.7816 87.5052 36.6777 87.7344C36.5775 87.96 36.513 88.182 36.4844 88.4004C36.4772 88.4648 36.4736 88.5114 36.4736 88.54C36.4736 88.6725 36.5041 88.7835 36.5649 88.873C36.6258 88.959 36.7135 89.0413 36.8281 89.1201C37.1325 89.3314 37.5246 89.4836 38.0044 89.5767C38.4842 89.6662 39.0518 89.7271 39.707 89.7593C39.9827 89.7736 40.2961 89.7808 40.647 89.7808C41.6603 89.7808 42.4875 89.6626 43.1284 89.4263C43.4399 89.3081 43.6602 89.1702 43.7891 89.0127C43.9215 88.8551 43.9878 88.6833 43.9878 88.4971C43.9878 88.3216 43.9359 88.1336 43.832 87.9331C43.721 87.7183 43.5688 87.498 43.3755 87.2725C43.1857 87.0433 43.012 86.8571 42.8545 86.7139C42.7005 86.5706 42.5 86.3952 42.2529 86.1875C41.9342 85.9189 41.5654 85.6253 41.1465 85.3066L41.2861 84.0176L46.3403 81.8423L46.8721 83.1206L42.7363 84.8662C43.6136 85.5251 44.2868 86.2502 44.7559 87.0415C44.9098 87.3029 45.0298 87.5643 45.1157 87.8257C45.2052 88.0692 45.2894 88.2751 45.3682 88.4434C45.4469 88.6117 45.549 88.7853 45.6743 88.9644C45.8032 89.1434 45.9429 89.2866 46.0933 89.394C46.2437 89.5015 46.4316 89.5928 46.6572 89.668C46.8828 89.7396 47.137 89.779 47.4199 89.7861H47.4629C47.6634 89.7861 47.8281 89.8506 47.957 89.9795C48.0859 90.1084 48.1504 90.2731 48.1504 90.4736C48.1504 90.6706 48.0841 90.8353 47.9517 90.9678C47.8228 91.0967 47.6598 91.1611 47.4629 91.1611ZM41.3076 83.4053L41.3452 82.7178L45.7441 80.8218L45.9966 81.3643L41.3076 83.4053ZM47.4092 91.1611C47.2087 91.1611 47.0439 91.0967 46.915 90.9678C46.7861 90.8389 46.7217 90.6742 46.7217 90.4736C46.7217 90.2767 46.7879 90.1138 46.9204 89.9849C47.0493 89.8524 47.2122 89.7861 47.4092 89.7861H47.5005C48.6141 89.7861 49.1709 89.4102 49.1709 88.6582C49.1709 88.6081 49.1691 88.5615 49.1655 88.5186C49.1619 88.472 49.1566 88.4255 49.1494 88.3789C49.1423 88.3288 49.1351 88.2876 49.1279 88.2554C49.1243 88.2231 49.1136 88.1802 49.0957 88.1265C49.0814 88.0728 49.0706 88.0369 49.0635 88.019C49.0599 87.9976 49.0474 87.9546 49.0259 87.8901C49.0044 87.8257 48.9919 87.7863 48.9883 87.772C48.9668 87.7075 48.9274 87.5697 48.8701 87.3584L50.1914 86.9878C50.3669 87.6825 50.4546 88.2393 50.4546 88.6582C50.4546 88.984 50.5119 89.2544 50.6265 89.4692C50.741 89.6805 50.929 89.7861 51.1904 89.7861C51.3838 89.7861 51.5467 89.8524 51.6792 89.9849C51.8153 90.1174 51.8833 90.2803 51.8833 90.4736C51.8833 90.6706 51.8171 90.8353 51.6846 90.9678C51.5521 91.0967 51.3892 91.1611 51.1958 91.1611C50.562 91.1611 50.0643 90.9624 49.7026 90.5649C49.2192 90.9624 48.4852 91.1611 47.5005 91.1611H47.4092ZM49.5308 85.9727L48.4995 84.9414L49.5254 83.9155L50.5566 84.9468L49.5308 85.9727ZM52.2163 93.7607L51.2925 92.8423L52.2056 91.9238L53.1294 92.8477L52.2163 93.7607ZM54.2466 93.7715L53.3228 92.8477L54.2358 91.9346L55.1597 92.853L54.2466 93.7715ZM50.6211 90.9678C50.4886 90.8353 50.4224 90.6706 50.4224 90.4736C50.4224 90.2767 50.4886 90.1138 50.6211 89.9849C50.75 89.8524 50.9129 89.7861 51.1099 89.7861H51.9639C52.6693 89.7861 53.2082 89.7038 53.5806 89.5391C53.8563 89.4173 53.9941 89.224 53.9941 88.959C53.9941 88.8838 53.9906 88.8104 53.9834 88.7388C53.9762 88.6672 53.9619 88.592 53.9404 88.5132C53.9189 88.4308 53.901 88.3628 53.8867 88.3091C53.876 88.2554 53.8527 88.1838 53.8169 88.0942C53.7811 88.0011 53.756 87.9385 53.7417 87.9062C53.731 87.8704 53.7041 87.8042 53.6611 87.7075C53.6182 87.6073 53.5931 87.5482 53.5859 87.5303C53.5286 87.3906 53.3997 87.1131 53.1992 86.6978L54.4507 86.0801C54.7837 86.6745 55.02 87.3853 55.1597 88.2124C55.2062 88.4845 55.2295 88.7065 55.2295 88.8784C55.2295 89.4513 55.0809 89.9168 54.7837 90.2749C54.4901 90.633 54.0944 90.8872 53.5967 91.0376C53.2816 91.12 52.8394 91.1611 52.27 91.1611H51.1099C50.9129 91.1611 50.75 91.0967 50.6211 90.9678ZM58.9141 87.5894C59.2148 88.4487 59.4189 89.2741 59.5264 90.0654C59.5479 90.2266 59.5586 90.377 59.5586 90.5166C59.5586 91.1146 59.3724 91.7233 59 92.3428C58.5166 93.1413 57.7575 93.87 56.7227 94.5288C56.4183 94.7222 56.1032 94.8994 55.7773 95.0605L55.165 93.8306C55.9671 93.4367 56.6618 92.9551 57.249 92.3857C57.6322 92.0098 57.9043 91.6034 58.0654 91.1665C58.1442 90.9552 58.1836 90.7386 58.1836 90.5166C58.1836 90.2946 58.1603 90.0618 58.1138 89.8184C58.0672 89.5749 58.0171 89.3726 57.9634 89.2114C57.9132 89.0467 57.8434 88.8372 57.7539 88.583C57.6644 88.3252 57.6017 88.139 57.5659 88.0244L58.9141 87.5894ZM58.1138 86.3486L57.0825 85.3174L58.1084 84.2915L59.1396 85.3228L58.1138 86.3486ZM63.2217 87.9653C63.0355 87.7684 62.8708 87.6699 62.7275 87.6699C62.5413 87.6699 62.3426 87.8096 62.1313 88.0889C61.9237 88.3717 61.8198 88.6564 61.8198 88.9429C61.8198 89.0646 61.8431 89.1738 61.8896 89.2705C61.9362 89.3636 62.0024 89.4406 62.0884 89.5015C62.1779 89.5588 62.2728 89.6071 62.373 89.6465C62.4733 89.6823 62.5915 89.7109 62.7275 89.7324C62.8672 89.7503 62.9943 89.7629 63.1089 89.77C63.2235 89.7736 63.3542 89.7754 63.501 89.7754H63.7803C63.8483 89.7754 63.936 89.7718 64.0435 89.7646C63.9897 89.1237 63.7158 88.5221 63.2217 87.96V87.9653ZM63.3989 91.1611C62.9979 91.1611 62.6362 91.1235 62.314 91.0483C61.9917 90.9731 61.7035 90.8568 61.4492 90.6992C61.1986 90.5381 61.0034 90.3215 60.8638 90.0493C60.7277 89.7736 60.6597 89.4478 60.6597 89.0718C60.6597 88.3234 60.887 87.6466 61.3418 87.0415C61.7357 86.5402 62.1976 86.2896 62.7275 86.2896C63.2861 86.2896 63.7928 86.5366 64.2476 87.0308C64.7489 87.5822 65.0765 88.3109 65.2305 89.2168C65.2806 89.5104 65.3057 89.8005 65.3057 90.0869C65.3057 90.9105 65.1284 91.6356 64.7739 92.2622C64.3729 92.9748 63.8161 93.5584 63.1035 94.0132C62.3945 94.4715 61.5638 94.7741 60.6113 94.9209L60.2891 93.5781C61.2952 93.3848 62.1385 93.0518 62.8188 92.5791C63.4455 92.1494 63.8286 91.6768 63.9683 91.1611H63.3989ZM68.9634 89.8022C69.1066 89.8022 69.2337 89.7987 69.3447 89.7915C69.4557 89.7843 69.5757 89.7664 69.7046 89.7378C69.8335 89.7091 69.9391 89.6715 70.0215 89.625C70.1074 89.5785 70.179 89.5122 70.2363 89.4263C70.2936 89.3403 70.3223 89.2383 70.3223 89.1201C70.3223 88.9948 70.2954 88.8641 70.2417 88.728C70.188 88.5884 70.1361 88.4792 70.0859 88.4004C70.0358 88.3216 69.9642 88.2142 69.8711 88.0781C69.4593 87.4909 68.9115 86.9287 68.2275 86.3916C68.0234 86.234 67.8372 86.1016 67.6689 85.9941L68.4692 84.8071C69.6187 85.5985 70.4727 86.4883 71.0312 87.4766C71.2354 87.8311 71.3786 88.182 71.4609 88.5293C71.5075 88.7262 71.5308 88.9232 71.5308 89.1201C71.5308 89.6536 71.3481 90.112 70.9829 90.4951C70.7716 90.7171 70.5013 90.8926 70.1719 91.0215C69.846 91.154 69.4826 91.2202 69.0815 91.2202C68.9992 91.2202 68.9365 91.2184 68.8936 91.2148C68.0234 91.2148 67.1175 90.932 66.1758 90.3662L66.7451 89.0503C67.207 89.3439 67.7728 89.5713 68.4424 89.7324C68.6322 89.779 68.8058 89.8022 68.9634 89.8022ZM54.1392 107.979C54.2716 108.108 54.3379 108.273 54.3379 108.474C54.3379 108.674 54.2716 108.839 54.1392 108.968C54.0103 109.097 53.8455 109.161 53.645 109.161H53.6021C52.9718 109.161 52.4616 109.052 52.0713 108.833C51.6846 108.611 51.3766 108.271 51.1475 107.813C50.1628 108.722 48.6893 109.177 46.7271 109.177C45.6349 109.17 44.7183 109.038 43.9771 108.78C43.2394 108.522 42.6898 108.099 42.3281 107.512C42.0739 107.075 41.9468 106.596 41.9468 106.073C41.9468 105.797 41.9826 105.52 42.0542 105.24C42.1724 104.757 42.3138 104.39 42.4785 104.139L43.5151 104.789C43.4256 104.943 43.3576 105.068 43.311 105.165C43.2645 105.258 43.2197 105.391 43.1768 105.562C43.1338 105.731 43.1123 105.908 43.1123 106.094C43.1123 106.327 43.1947 106.578 43.3594 106.846C43.4775 107.036 43.6566 107.195 43.8965 107.324C44.14 107.45 44.3888 107.541 44.6431 107.598C44.9009 107.652 45.2017 107.697 45.5454 107.732C45.8927 107.768 46.2866 107.786 46.7271 107.786C47.9338 107.786 48.8844 107.646 49.5791 107.367C50.0374 107.185 50.3704 106.921 50.5781 106.578C50.6426 106.47 50.7017 106.347 50.7554 106.207C50.8127 106.064 50.8556 105.942 50.8843 105.842C50.9165 105.738 50.9577 105.589 51.0078 105.396C51.0615 105.203 51.0991 105.067 51.1206 104.988L52.356 105.321C52.3416 105.371 52.3184 105.455 52.2861 105.573C52.2539 105.691 52.2288 105.786 52.2109 105.858C52.193 105.93 52.1751 106.019 52.1572 106.126C52.1429 106.234 52.1357 106.336 52.1357 106.433C52.1357 107.335 52.6388 107.786 53.645 107.786C53.8455 107.786 54.0103 107.851 54.1392 107.979ZM45.1641 110.644L46.0879 109.725L47.001 110.638L46.0771 111.562L45.1641 110.644ZM47.1943 110.638L48.1182 109.714L49.0312 110.633L48.1074 111.551L47.1943 110.638ZM47.9409 112.185L47.0977 113.028L46.2598 112.19L47.103 111.347L47.9409 112.185ZM53.688 109.161C53.4875 109.161 53.3228 109.098 53.1938 108.973C53.0649 108.844 53.0005 108.681 53.0005 108.484C53.0005 108.284 53.0667 108.117 53.1992 107.985C53.3317 107.852 53.4982 107.786 53.6987 107.786C54.1034 107.786 54.4614 107.6 54.7729 107.228C54.866 107.117 54.9609 106.982 55.0576 106.825C55.1579 106.667 55.2349 106.535 55.2886 106.427C55.3459 106.32 55.4264 106.16 55.5303 105.949C55.6377 105.738 55.7093 105.598 55.7451 105.53C55.9671 105.101 56.2572 104.785 56.6152 104.585C56.8158 104.474 57.0252 104.418 57.2437 104.418C57.505 104.418 57.7396 104.458 57.9473 104.537C58.1549 104.615 58.3232 104.712 58.4521 104.827C58.5846 104.938 58.71 105.088 58.8281 105.278C58.9463 105.468 59.0376 105.641 59.1021 105.799C59.1701 105.956 59.2524 106.152 59.3491 106.384C59.4458 106.617 59.5282 106.801 59.5962 106.938C59.7323 107.206 59.9041 107.424 60.1118 107.593C60.2694 107.722 60.4824 107.786 60.751 107.786C60.9515 107.786 61.118 107.852 61.2505 107.985C61.383 108.117 61.4492 108.284 61.4492 108.484C61.4492 108.681 61.383 108.844 61.2505 108.973C61.118 109.098 60.9515 109.161 60.751 109.161C60.3786 109.161 60.0527 109.081 59.7734 108.919C59.4977 108.755 59.2399 108.54 59 108.275C58.6742 108.844 58.2284 109.129 57.6626 109.129C57.0181 109.129 56.293 108.851 55.4873 108.296C55.3584 108.418 55.2653 108.506 55.208 108.56C55.1507 108.613 55.0594 108.687 54.9341 108.78C54.8123 108.873 54.7013 108.941 54.6011 108.984C54.5044 109.023 54.3809 109.061 54.2305 109.097C54.0837 109.136 53.9261 109.158 53.7578 109.161H53.688ZM57.77 107.834C57.9347 107.834 58.0708 107.761 58.1782 107.614C58.2892 107.467 58.3447 107.301 58.3447 107.115C58.3447 106.954 58.3089 106.791 58.2373 106.626C58.1657 106.461 58.0833 106.322 57.9902 106.207C57.7396 105.91 57.4746 105.761 57.1953 105.761C57.1416 105.761 57.0843 105.788 57.0234 105.842C56.9661 105.892 56.925 105.937 56.8999 105.976C56.8784 106.012 56.8444 106.067 56.7979 106.143C56.7227 106.275 56.6313 106.461 56.5239 106.701L56.293 107.168C56.7227 107.484 57.147 107.697 57.5659 107.808C57.6304 107.826 57.6984 107.834 57.77 107.834ZM60.2622 108.968C60.1297 108.835 60.0635 108.671 60.0635 108.474C60.0635 108.277 60.1297 108.114 60.2622 107.985C60.3911 107.852 60.554 107.786 60.751 107.786H61.605C62.3104 107.786 62.8493 107.704 63.2217 107.539C63.4974 107.417 63.6353 107.224 63.6353 106.959C63.6353 106.884 63.6317 106.81 63.6245 106.739C63.6174 106.667 63.603 106.592 63.5815 106.513C63.5601 106.431 63.5422 106.363 63.5278 106.309C63.5171 106.255 63.4938 106.184 63.458 106.094C63.4222 106.001 63.3971 105.938 63.3828 105.906C63.3721 105.87 63.3452 105.804 63.3022 105.708C63.2593 105.607 63.2342 105.548 63.2271 105.53C63.1698 105.391 63.0409 105.113 62.8403 104.698L64.0918 104.08C64.4248 104.674 64.6611 105.385 64.8008 106.212C64.8473 106.485 64.8706 106.707 64.8706 106.878C64.8706 107.451 64.722 107.917 64.4248 108.275C64.1312 108.633 63.7355 108.887 63.2378 109.038C62.9227 109.12 62.4805 109.161 61.9111 109.161H60.751C60.554 109.161 60.3911 109.097 60.2622 108.968ZM60.8208 110.917L61.7446 109.999L62.6577 110.912L61.7339 111.836L60.8208 110.917ZM62.8511 110.912L63.7749 109.988L64.688 110.907L63.7642 111.825L62.8511 110.912ZM63.5977 112.459L62.7544 113.302L61.9165 112.464L62.7598 111.621L63.5977 112.459Z" fill="#1E1E1E"/>
<rect x="31.25" y="63.25" width="45.5" height="9.5" fill="#E8E8E8" stroke="#9F9F9F" stroke-width="0.5"/>
<rect x="0.25" y="52.25" width="31.5" height="31.5" rx="4.75" fill="#E8E8E8" stroke="#9F9F9F" stroke-width="0.5"/>
<mask id="path-8-inside-2_198_193" fill="white">
<path fill-rule="evenodd" clip-rule="evenodd" d="M305 219C307.761 219 310 221.239 310 224V246C310 248.761 307.761 251 305 251H273C270.239 251 268 248.761 268 246V242H233V228H268V224C268 221.239 270.239 219 273 219H305Z"/>
</mask>
<path fill-rule="evenodd" clip-rule="evenodd" d="M305 219C307.761 219 310 221.239 310 224V246C310 248.761 307.761 251 305 251H273C270.239 251 268 248.761 268 246V242H233V228H268V224C268 221.239 270.239 219 273 219H305Z" fill="#E8E8E8"/>
<path d="M268 242V241.5H268.5V242H268ZM233 242V242.5H232.5V242H233ZM233 228H232.5V227.5H233V228ZM268 228H268.5V228.5H268V228ZM309.5 224C309.5 221.515 307.485 219.5 305 219.5V218.5C308.038 218.5 310.5 220.962 310.5 224H309.5ZM309.5 246V224H310.5V246H309.5ZM305 250.5C307.485 250.5 309.5 248.485 309.5 246H310.5C310.5 249.038 308.038 251.5 305 251.5V250.5ZM273 250.5H305V251.5H273V250.5ZM268.5 246C268.5 248.485 270.515 250.5 273 250.5V251.5C269.962 251.5 267.5 249.038 267.5 246H268.5ZM268.5 242V246H267.5V242H268.5ZM233 241.5H268V242.5H233V241.5ZM233.5 228V242H232.5V228H233.5ZM268 228.5H233V227.5H268V228.5ZM268.5 224V228H267.5V224H268.5ZM273 219.5C270.515 219.5 268.5 221.515 268.5 224H267.5C267.5 220.962 269.962 218.5 273 218.5V219.5ZM305 219.5H273V218.5H305V219.5Z" fill="#9F9F9F" mask="url(#path-8-inside-2_198_193)"/>
<path d="M276.958 229.059C277.09 229.411 277.211 229.69 277.321 229.895C277.431 230.093 277.574 230.254 277.75 230.379C277.926 230.496 278.15 230.555 278.421 230.555C278.839 230.555 279.14 230.43 279.323 230.181C279.506 229.924 279.598 229.554 279.598 229.07C279.598 228.953 279.583 228.74 279.554 228.432L280.489 228.245C280.548 228.575 280.577 228.876 280.577 229.147C280.577 229.917 280.397 230.551 280.038 231.05C279.679 231.549 279.162 231.802 278.487 231.809C278.113 231.809 277.779 231.725 277.486 231.556L277.519 231.809C277.614 232.696 277.662 233.763 277.662 235.01C277.662 235.457 277.658 235.787 277.651 236H276.617C276.624 235.853 276.628 235.626 276.628 235.318C276.628 234.035 276.562 232.916 276.43 231.963C276.349 231.318 276.239 230.749 276.1 230.258C275.961 229.759 275.796 229.29 275.605 228.85L276.639 228.245C276.727 228.436 276.833 228.707 276.958 229.059ZM285.909 233.239C285.498 234.104 285.293 234.845 285.293 235.461C285.293 236.136 285.494 236.645 285.898 236.99C286.301 237.335 286.877 237.507 287.625 237.507C288.189 237.507 288.67 237.404 289.066 237.199C289.462 237.001 289.755 236.741 289.946 236.418C290.144 236.095 290.243 235.758 290.243 235.406C290.243 235.091 290.177 234.68 290.045 234.174C289.913 233.661 289.766 233.169 289.605 232.7L290.54 232.238C290.76 232.876 290.921 233.452 291.024 233.965C291.134 234.478 291.189 234.959 291.189 235.406C291.189 235.971 291.046 236.506 290.76 237.012C290.474 237.518 290.059 237.925 289.517 238.233C288.981 238.548 288.351 238.706 287.625 238.706C286.935 238.706 286.341 238.57 285.843 238.299C285.344 238.028 284.963 237.654 284.699 237.177C284.442 236.708 284.314 236.18 284.314 235.593C284.314 235.153 284.387 234.687 284.534 234.196C284.68 233.705 284.853 233.254 285.051 232.843L285.909 233.239ZM287.867 231.512L288.725 232.37L287.867 233.228L287.009 232.37L287.867 231.512ZM291.97 238.112C293.019 237.885 293.825 237.595 294.39 237.243C294.955 236.898 295.296 236.473 295.413 235.967C295.164 236.011 294.9 236.033 294.621 236.033C294.122 236.033 293.671 235.952 293.268 235.791C292.865 235.622 292.579 235.366 292.41 235.021C292.285 234.757 292.223 234.467 292.223 234.152C292.223 233.756 292.307 233.36 292.476 232.964C292.652 232.568 292.883 232.242 293.169 231.985C293.462 231.728 293.778 231.6 294.115 231.6C294.548 231.6 294.933 231.791 295.27 232.172C295.615 232.546 295.879 233.03 296.062 233.624C296.253 234.211 296.348 234.801 296.348 235.395C296.348 236.348 295.992 237.155 295.281 237.815C294.577 238.475 293.594 238.93 292.333 239.179L291.97 238.112ZM293.213 234.35C293.33 234.519 293.532 234.643 293.818 234.724C294.104 234.805 294.434 234.845 294.808 234.845C295.013 234.845 295.215 234.834 295.413 234.812C295.325 234.255 295.164 233.778 294.929 233.382C294.702 232.986 294.423 232.77 294.093 232.733C293.932 232.711 293.774 232.766 293.62 232.898C293.473 233.023 293.352 233.188 293.257 233.393C293.169 233.598 293.125 233.796 293.125 233.987C293.125 234.141 293.154 234.262 293.213 234.35ZM296.484 238.145C296.961 237.969 297.39 237.749 297.771 237.485C298.16 237.221 298.464 236.946 298.684 236.66C298.912 236.381 299.025 236.121 299.025 235.879C299.025 235.571 298.831 234.662 298.442 233.151L299.41 232.777C299.579 233.298 299.715 233.848 299.817 234.427C299.927 234.999 299.982 235.483 299.982 235.879C299.982 236.554 299.7 237.188 299.135 237.782C298.578 238.383 297.852 238.849 296.957 239.179L296.484 238.145ZM298.75 230.005L299.608 230.863L298.75 231.721L297.892 230.863L298.75 230.005Z" fill="#1E1E1E"/>
<g clip-path="url(#clip0_198_193)">
<path d="M261.794 234.491L258.365 231.212C258.071 230.929 257.615 230.929 257.32 231.212C257.026 231.495 257.026 231.933 257.32 232.216L259.484 234.293H241.736C241.324 234.293 241 234.604 241 235C241 235.396 241.324 235.707 241.736 235.707H259.498L257.335 237.784C257.041 238.067 257.041 238.505 257.335 238.788C257.482 238.929 257.673 239 257.85 239C258.027 239 258.233 238.929 258.365 238.788L261.794 235.495C262.088 235.212 262.088 234.774 261.794 234.491Z" fill="#1F835F"/>
</g>
<path d="M75.25 42C75.25 36.6152 79.6152 32.25 85 32.25H225C230.385 32.25 234.75 36.6152 234.75 42V243C234.75 248.385 230.385 252.75 225 252.75H85C79.6152 252.75 75.25 248.385 75.25 243V42Z" fill="#E8E8E8" stroke="#9F9F9F" stroke-width="0.5"/>
<path d="M166.75 231C166.75 237.489 161.489 242.75 155 242.75C148.511 242.75 143.25 237.489 143.25 231C143.25 224.511 148.511 219.25 155 219.25C161.489 219.25 166.75 224.511 166.75 231Z" fill="white" stroke="#9F9F9F" stroke-width="0.5"/>
<g clip-path="url(#clip1_198_193)">
<path d="M159.937 226.151L154.411 231.685C154.208 231.888 153.88 231.888 153.677 231.685L150.729 228.733C150.526 228.529 150.198 228.529 149.995 228.733L148.151 230.579C147.948 230.783 147.948 231.111 148.151 231.315L153.677 236.849C153.88 237.052 154.208 237.052 154.411 236.849L162.515 228.733C162.719 228.529 162.719 228.201 162.515 227.997L160.672 226.151C160.469 225.948 160.14 225.948 159.937 226.151Z" fill="#1F835F"/>
</g>
<defs>
<clipPath id="clip0_198_193">
<rect width="21" height="8" fill="white" transform="translate(241 231)"/>
</clipPath>
<clipPath id="clip1_198_193">
<rect width="14.6667" height="11" fill="white" transform="translate(148 226)"/>
</clipPath>
</defs>
</svg>
