<svg width="24" height="24" viewBox="0 0 24 24" fill="none" xmlns="http://www.w3.org/2000/svg">
<path d="M23.75 12C23.75 18.4893 18.4893 23.75 12 23.75C5.51065 23.75 0.25 18.4893 0.25 12C0.25 5.51065 5.51065 0.25 12 0.25C18.4893 0.25 23.75 5.51065 23.75 12Z" fill="white" stroke="#9F9F9F" stroke-width="0.5"/>
<g clip-path="url(#clip0_198_221)">
<path d="M16.9373 7.15102L11.4112 12.6849C11.2081 12.8883 10.88 12.8883 10.6769 12.6849L7.72894 9.73281C7.52582 9.5294 7.19769 9.5294 6.99457 9.73281L5.15082 11.5792C4.94769 11.7826 4.94769 12.1112 5.15082 12.3146L10.6769 17.8485C10.88 18.0519 11.2081 18.0519 11.4112 17.8485L19.5154 9.73281C19.7185 9.5294 19.7185 9.20081 19.5154 8.99739L17.6717 7.15102C17.4685 6.94761 17.1404 6.94761 16.9373 7.15102Z" fill="#1F835F"/>
</g>
<defs>
<clipPath id="clip0_198_221">
<rect width="14.6667" height="11" fill="white" transform="translate(5 7)"/>
</clipPath>
</defs>
</svg>
