<svg width="19" height="22" viewBox="0 0 19 22" fill="none" xmlns="http://www.w3.org/2000/svg">
<path d="M2.44736 4.72C1.38021 6.4 0.75 8.49 0.75 10.75C0.75 16.27 4.51444 20.75 9.15278 20.75C13.7911 20.75 17.5556 16.27 17.5556 10.75C17.5556 5.23 13.7911 0.75 9.15278 0.75M3.27083 10.75C3.27083 14.62 5.9009 17.75 9.15278 17.75C12.4047 17.75 15.0347 14.62 15.0347 10.75C15.0347 6.88 12.4047 3.75 9.15278 3.75M9.15278 14.75C11.0098 14.75 12.5139 12.96 12.5139 10.75C12.5139 8.54 11.0098 6.75 9.15278 6.75" stroke="#292D32" stroke-width="1.5" stroke-linecap="round" stroke-linejoin="round"/>
</svg>
