<svg width="24" height="24" viewBox="0 0 24 24" fill="none" xmlns="http://www.w3.org/2000/svg">
<path d="M18.94 3.51999H5.06C3.92 3.51999 3 4.43999 3 5.57999V15.51C3 16.64 3.93 17.57 5.06 17.57H9.81V19.97H8.01C7.59 19.97 7.24 20.31 7.24 20.74C7.24 21.17 7.59 21.51 8.01 21.51H15.99C16.41 21.51 16.76 21.16 16.76 20.74C16.76 20.32 16.41 19.97 15.99 19.97H14.19V17.57H18.94C20.07 17.57 21 16.64 21 15.51V5.57999C21 4.43999 20.08 3.51999 18.94 3.51999ZM18.94 15.51H5.06C4.78 15.51 4.55 15.28 4.55 15V5.57999C4.55 5.29999 4.78 5.06999 5.06 5.06999H18.95C19.23 5.06999 19.46 5.29999 19.46 5.57999V15C19.46 15.28 19.23 15.51 18.95 15.51H18.94Z" fill="white"/>
<path d="M17.51 10.06H15.24C15.1572 10.06 15.09 10.1272 15.09 10.21V13.36C15.09 13.4428 15.1572 13.51 15.24 13.51H17.51C17.5928 13.51 17.66 13.4428 17.66 13.36V10.21C17.66 10.1272 17.5928 10.06 17.51 10.06Z" fill="white"/>
<path d="M8.78 8.79001H6.48C6.39716 8.79001 6.33 8.85717 6.33 8.94001V13.37C6.33 13.4529 6.39716 13.52 6.48 13.52H8.78C8.86284 13.52 8.93 13.4529 8.93 13.37V8.94001C8.93 8.85717 8.86284 8.79001 8.78 8.79001Z" fill="white"/>
<path d="M13.14 7.06H10.87C10.7872 7.06 10.72 7.12715 10.72 7.21V13.36C10.72 13.4428 10.7872 13.51 10.87 13.51H13.14C13.2228 13.51 13.29 13.4428 13.29 13.36V7.21C13.29 7.12715 13.2228 7.06 13.14 7.06Z" fill="white"/>
</svg>
