<svg width="32" height="32" viewBox="0 0 32 32" fill="none" xmlns="http://www.w3.org/2000/svg">
<path d="M7.98438 28.4688V20.4531C7.98438 19.4694 8.78187 18.6719 9.76562 18.6719H22.2344C23.2181 18.6719 24.0156 19.4694 24.0156 20.4531V29.3594M24.0156 3.53125V7.09375C24.0156 8.07751 23.2181 8.875 22.2344 8.875L9.76562 8.875C8.78187 8.875 7.98437 8.07751 7.98438 7.09375L7.98438 1.75M29.3556 7.98062L24.0194 2.64438C23.4467 2.07172 22.67 1.75 21.8602 1.75H4.80357C3.11711 1.75 1.75 3.11711 1.75 4.80357V27.1964C1.75 28.8829 3.11711 30.25 4.80357 30.25H27.1964C28.8829 30.25 30.25 28.8829 30.25 27.1964V10.1398C30.25 9.32996 29.9283 8.55327 29.3556 7.98062Z" stroke="black" stroke-width="2" stroke-linecap="round"/>
</svg>
