<svg width="42" height="42" viewBox="0 0 42 42" fill="none" xmlns="http://www.w3.org/2000/svg">
<path d="M26.775 29.225L29.225 26.775L22.75 20.3V12.25H19.25V21.7L26.775 29.225ZM21 38.5C18.5792 38.5 16.3042 38.0406 14.175 37.1219C12.0458 36.2031 10.1937 34.9563 8.61875 33.3813C7.04375 31.8063 5.79688 29.9542 4.87813 27.825C3.95937 25.6958 3.5 23.4208 3.5 21C3.5 18.5792 3.95937 16.3042 4.87813 14.175C5.79688 12.0458 7.04375 10.1937 8.61875 8.61875C10.1937 7.04375 12.0458 5.79688 14.175 4.87813C16.3042 3.95937 18.5792 3.5 21 3.5C23.4208 3.5 25.6958 3.95937 27.825 4.87813C29.9542 5.79688 31.8063 7.04375 33.3813 8.61875C34.9563 10.1937 36.2031 12.0458 37.1219 14.175C38.0406 16.3042 38.5 18.5792 38.5 21C38.5 23.4208 38.0406 25.6958 37.1219 27.825C36.2031 29.9542 34.9563 31.8063 33.3813 33.3813C31.8063 34.9563 29.9542 36.2031 27.825 37.1219C25.6958 38.0406 23.4208 38.5 21 38.5ZM21 35C24.8792 35 28.1823 33.6365 30.9094 30.9094C33.6365 28.1823 35 24.8792 35 21C35 17.1208 33.6365 13.8177 30.9094 11.0906C28.1823 8.36354 24.8792 7 21 7C17.1208 7 13.8177 8.36354 11.0906 11.0906C8.36354 13.8177 7 17.1208 7 21C7 24.8792 8.36354 28.1823 11.0906 30.9094C13.8177 33.6365 17.1208 35 21 35Z" fill="#1D1B20"/>
</svg>
