<svg width="24" height="24" viewBox="0 0 24 24" fill="none" xmlns="http://www.w3.org/2000/svg">
<path d="M17.43 19.3L19.31 17.42C19.5 17.23 19.51 16.93 19.34 16.73L18.3 15.47C18.56 15 18.77 14.5 18.91 14L20.53 13.84C20.79 13.81 20.99 13.59 20.99 13.33V10.67C20.99 10.41 20.79 10.18 20.53 10.16L18.91 9.99999C18.76 9.48999 18.56 8.99999 18.3 8.52999L19.33 7.26999C19.5 7.06999 19.48 6.76999 19.3 6.57999L17.42 4.69999C17.23 4.50999 16.93 4.49999 16.73 4.66999L15.47 5.70999C15 5.44999 14.5 5.23999 14 5.09999L13.84 3.47999C13.81 3.21999 13.59 3.01999 13.33 3.01999H10.67C10.41 3.01999 10.18 3.21999 10.16 3.47999L10 5.09999C9.49 5.24999 9 5.44999 8.53 5.70999L7.27 4.67999C7.07 4.50999 6.77 4.52999 6.58 4.70999L4.7 6.58999C4.51 6.77999 4.5 7.07999 4.67 7.27999L5.71 8.53999C5.45 9.00999 5.24 9.50999 5.1 10.01L3.48 10.17C3.22 10.2 3.02 10.42 3.02 10.68V13.34C3.02 13.6 3.22 13.83 3.48 13.85L5.1 14.01C5.25 14.52 5.45 15.01 5.71 15.48L4.67 16.74C4.5 16.94 4.52 17.24 4.7 17.43L6.58 19.31C6.77 19.5 7.06 19.51 7.27 19.34L8.53 18.31C9 18.57 9.5 18.78 10 18.92L10.16 20.54C10.19 20.8 10.41 21 10.67 21H13.33C13.59 21 13.82 20.8 13.84 20.54L14 18.92C14.51 18.77 15 18.57 15.47 18.31L16.73 19.34C16.93 19.51 17.23 19.49 17.42 19.31L17.43 19.3ZM9.45 14.55C8.05 13.15 8.05 10.86 9.45 9.45999C10.85 8.05999 13.14 8.05999 14.54 9.45999C15.94 10.86 15.94 13.15 14.54 14.55C13.14 15.95 10.85 15.95 9.45 14.55Z" fill="white"/>
</svg>
