<svg width="35" height="30" viewBox="0 0 35 30" fill="none" xmlns="http://www.w3.org/2000/svg">
<path d="M17.25 19.3269C19.9424 19.3269 22.125 17.3232 22.125 14.8515C22.125 12.3798 19.9424 10.3761 17.25 10.3761C14.5576 10.3761 12.375 12.3798 12.375 14.8515C12.375 17.3232 14.5576 19.3269 17.25 19.3269Z" stroke="black" stroke-width="1.5" stroke-miterlimit="10" stroke-linecap="round" stroke-linejoin="round"/>
<path d="M1 16.1643V13.5387C1 11.9872 2.38125 10.7043 4.0875 10.7043C7.02875 10.7043 8.23125 8.79477 6.7525 6.45264C5.9075 5.11002 6.41125 3.36461 7.89 2.58887L10.7012 1.11198C11.985 0.410836 13.6425 0.828541 14.4062 2.00707L14.585 2.29051C16.0475 4.63264 18.4525 4.63264 19.9312 2.29051L20.11 2.00707C20.8738 0.828541 22.5313 0.410836 23.815 1.11198L26.6263 2.58887C28.105 3.36461 28.6087 5.11002 27.7637 6.45264C26.285 8.79477 27.4875 10.7043 30.4288 10.7043C32.1188 10.7043 33.5163 11.9723 33.5163 13.5387V16.1643C33.5163 17.7158 32.135 18.9987 30.4288 18.9987C27.4875 18.9987 26.285 20.9082 27.7637 23.2503C28.6087 24.6079 28.105 26.3384 26.6263 27.1141L23.815 28.591C22.5313 29.2921 20.8738 28.8744 20.11 27.6959L19.9312 27.4125C18.4687 25.0703 16.0637 25.0703 14.585 27.4125L14.4062 27.6959C13.6425 28.8744 11.985 29.2921 10.7012 28.591L7.89 27.1141C6.41125 26.3384 5.9075 24.593 6.7525 23.2503C8.23125 20.9082 7.02875 18.9987 4.0875 18.9987C2.38125 18.9987 1 17.7158 1 16.1643Z" stroke="black" stroke-width="1.5" stroke-miterlimit="10" stroke-linecap="round" stroke-linejoin="round"/>
</svg>
