<svg width="24" height="24" viewBox="0 0 24 24" fill="none" xmlns="http://www.w3.org/2000/svg">
<path d="M14.25 11.89V5C14.25 3.34 12.91 2 11.25 2C9.59 2 8.25 3.34 8.25 5V11.89C6.75 12.87 5.75 14.57 5.75 16.5C5.75 19.54 8.21 22 11.25 22C14.29 22 16.75 19.54 16.75 16.5C16.75 14.57 15.75 12.88 14.25 11.89ZM11.25 21C8.77 21 6.75 18.98 6.75 16.5C6.75 14.74 7.77 13.23 9.25 12.49V5C9.25 3.9 10.15 3 11.25 3C12.35 3 13.25 3.9 13.25 5V12.49C14.73 13.23 15.75 14.74 15.75 16.5C15.75 18.98 13.73 21 11.25 21Z" fill="#4D8B75"/>
<path d="M12.58 13.83L11.75 13.42V5C11.75 4.72 11.53 4.5 11.25 4.5C10.97 4.5 10.75 4.72 10.75 5V13.42L9.92 13.83C8.89 14.35 8.25 15.37 8.25 16.5C8.25 18.15 9.6 19.5 11.25 19.5C12.9 19.5 14.25 18.15 14.25 16.5C14.25 15.37 13.61 14.35 12.58 13.83Z" fill="#4D8B75"/>
<path d="M18.25 5C18.25 4.72 18.03 4.5 17.75 4.5H15.25V5.5H17.75C18.03 5.5 18.25 5.28 18.25 5Z" fill="#4D8B75"/>
<path d="M17.75 7.42H15.25V8.42H17.75C18.03 8.42 18.25 8.2 18.25 7.92C18.25 7.64 18.03 7.42 17.75 7.42Z" fill="#4D8B75"/>
<path d="M17.75 10.34H15.25V11.34H17.75C18.03 11.34 18.25 11.12 18.25 10.84C18.25 10.56 18.03 10.34 17.75 10.34Z" fill="#4D8B75"/>
</svg>
