<svg width="17" height="17" viewBox="0 0 17 17" fill="none" xmlns="http://www.w3.org/2000/svg">
<path opacity="0.7" d="M0 3C0 1.34315 1.34315 0 3 0H13.6667C15.3235 0 16.6667 1.34315 16.6667 3V13.6667C16.6667 15.3235 15.3235 16.6667 13.6667 16.6667H3C1.34315 16.6667 0 15.3235 0 13.6667V3Z" fill="#37B34A"/>
<path d="M7.05555 12.5C6.77777 12.5 6.49999 12.4444 6.27777 12.2222L2.66666 8.61111C2.22222 8.16667 2.22222 7.55555 2.66666 7.11111C3.11111 6.66667 3.72222 6.66667 4.16666 7.11111L7.11111 10.0556L12.6111 4.55555C13.0555 4.11111 13.6667 4.11111 14.1111 4.55555C14.5555 5 14.5555 5.61111 14.1111 6.05555L7.77777 12.2778C7.55555 12.3889 7.33333 12.5 7.05555 12.5Z" fill="white"/>
</svg>
