<svg width="18" height="18" viewBox="0 0 18 18" fill="none" xmlns="http://www.w3.org/2000/svg">
<path opacity="0.7" d="M0.666687 3.66667C0.666687 2.00982 2.00983 0.666672 3.66669 0.666672H14.3334C15.9902 0.666672 17.3334 2.00982 17.3334 3.66667V14.3333C17.3334 15.9902 15.9902 17.3333 14.3334 17.3333H3.66669C2.00983 17.3333 0.666687 15.9902 0.666687 14.3333V3.66667Z" fill="url(#paint0_radial_144_58)"/>
<path d="M10.4834 8.98336L13.6723 5.79447C14.1056 5.36114 14.1056 4.70558 13.6723 4.27225C13.2389 3.83892 12.5834 3.83892 12.15 4.27225L8.96116 7.46114L5.77227 4.27225C5.33894 3.83892 4.61116 3.83892 4.25005 4.27225C3.88894 4.70558 3.81672 5.36114 4.25005 5.79447L7.43894 8.98336L4.25005 12.1723C3.81672 12.6056 3.81672 13.2611 4.25005 13.6945C4.46672 13.9111 4.68338 14.0556 4.97227 14.0556C5.26116 14.0556 5.55005 13.9834 5.76672 13.7667L8.95561 10.5778L12.1445 13.7667C12.3612 13.9834 12.65 14.0556 12.9389 14.0556C13.2278 14.0556 13.5167 13.9834 13.7334 13.7667C14.1667 13.3334 14.1667 12.6778 13.7334 12.2445L10.4723 8.98336H10.4834Z" fill="white"/>
<defs>
<radialGradient id="paint0_radial_144_58" cx="0" cy="0" r="1" gradientUnits="userSpaceOnUse" gradientTransform="translate(9.00002 9) scale(8.33333)">
<stop stop-color="#EC1C24" stop-opacity="0.4"/>
<stop offset="1" stop-color="#EC1C24"/>
</radialGradient>
</defs>
</svg>
