<svg width="19" height="153" viewBox="0 0 19 153" fill="none" xmlns="http://www.w3.org/2000/svg">
<path d="M7.99027 0.250032C10.7517 0.240036 12.9983 2.4705 13.0083 5.2319L13.2286 66.0767L0.4703 66.1228L0.250062 5.27808C0.240067 2.51668 2.47053 0.270011 5.23193 0.260016L7.99027 0.250032Z" fill="#2D9AFF" stroke="#949494" stroke-width="0.5"/>
<path d="M8.53971 152.059C11.3011 152.049 13.5316 149.802 13.5216 147.041L13.3013 86.1958L0.543066 86.242L0.763304 147.087C0.773299 149.848 3.01996 152.079 5.78137 152.069L8.53971 152.059Z" fill="#FF9B0E" stroke="#949494" stroke-width="0.5"/>
<path d="M13.2285 66.0765L13.3013 86.1958L0.543069 86.2419L0.470245 66.1227L13.2285 66.0765Z" fill="#3EFFA2" stroke="#949494" stroke-width="0.5"/>
<path d="M18.2723 49.597L18.2922 55.0841L8.08558 55.1211L4.24817 52.3914L8.06572 49.634L18.2723 49.597Z" fill="white" stroke="#949494" stroke-width="0.5" stroke-linejoin="round"/>
<path d="M9.39453 64.2614L9.40777 67.9194L6.4916 67.9299L4.29784 66.1088L6.47836 64.2719L9.39453 64.2614Z" fill="white" stroke="#949494" stroke-width="0.5" stroke-linejoin="round"/>
<path d="M9.46729 84.3806L9.48053 88.0387L6.56435 88.0492L4.3706 86.2281L6.55111 84.3912L9.46729 84.3806Z" fill="white" stroke="#949494" stroke-width="0.5" stroke-linejoin="round"/>
</svg>
