<svg width="16" height="159" viewBox="0 0 16 159" fill="none" xmlns="http://www.w3.org/2000/svg">
<path d="M5.90845 0.25C8.66987 0.25 10.9084 2.48858 10.9084 5.25L10.9084 68.0852L0.250058 68.0852L0.250061 5.25C0.250061 2.48857 2.48864 0.25 5.25006 0.25L5.90845 0.25Z" fill="#FF9B0E" stroke="#949494" stroke-width="0.5"/>
<path d="M5.90845 157.895C8.66987 157.895 10.9084 155.656 10.9084 152.895L10.9085 89.1044L0.250064 89.1044L0.250061 152.895C0.250061 155.656 2.48864 157.895 5.25006 157.895L5.90845 157.895Z" fill="#2D9AFF" stroke="#949494" stroke-width="0.5"/>
<rect x="10.9084" y="68.0852" width="21.0193" height="10.6584" transform="rotate(90 10.9084 68.0852)" fill="#3EFFA2" stroke="#949494" stroke-width="0.5"/>
<path d="M7.71094 66.1743L7.71094 69.996L5.27473 69.996L3.44758 68.0852L5.27473 66.1743L7.71094 66.1743Z" fill="white" stroke="#949494" stroke-width="0.5" stroke-linejoin="round"/>
<path d="M7.71094 87.1938L7.71094 91.0155L5.27473 91.0155L3.44758 89.1047L5.27473 87.1938L7.71094 87.1938Z" fill="white" stroke="#949494" stroke-width="0.5" stroke-linejoin="round"/>
<path d="M15.1716 101.525L15.1716 107.257L6.64492 107.257L3.44741 104.391L6.64492 101.525L15.1716 101.525Z" fill="white" stroke="#949494" stroke-width="0.5" stroke-linejoin="round"/>
</svg>
