<svg width="23" height="153" viewBox="0 0 23 153" fill="none" xmlns="http://www.w3.org/2000/svg">
<path d="M7.99027 0.250032C10.7517 0.240036 12.9983 2.4705 13.0083 5.2319L13.2286 66.0767L0.4703 66.1228L0.250062 5.27808C0.240067 2.51668 2.47053 0.270011 5.23193 0.260016L7.99027 0.250032Z" fill="#2D9AFF" stroke="#949494" stroke-width="0.5"/>
<path d="M8.53983 152.059C11.3012 152.049 13.5317 149.802 13.5217 147.041L13.3015 86.1958L0.543188 86.242L0.763426 147.087C0.773422 149.848 3.02009 152.079 5.78149 152.069L8.53983 152.059Z" fill="#FF9B0E" stroke="#949494" stroke-width="0.5"/>
<path d="M13.2286 66.0764L13.3015 86.1956L0.543192 86.2418L0.470367 66.1226L13.2286 66.0764Z" fill="#3EFFA2" stroke="#949494" stroke-width="0.5"/>
<path d="M22.4531 72.9122L22.473 78.3993L12.2664 78.4362L8.42896 75.7066L12.2465 72.9492L22.4531 72.9122Z" fill="white" stroke="#949494" stroke-width="0.5" stroke-linejoin="round"/>
<path d="M9.39453 64.2614L9.40777 67.9194L6.4916 67.9299L4.29784 66.1088L6.47836 64.2719L9.39453 64.2614Z" fill="white" stroke="#949494" stroke-width="0.5" stroke-linejoin="round"/>
<path d="M9.46741 84.3805L9.48065 88.0385L6.56447 88.0491L4.37072 86.228L6.55123 84.391L9.46741 84.3805Z" fill="white" stroke="#949494" stroke-width="0.5" stroke-linejoin="round"/>
</svg>
