<svg width="35" height="35" viewBox="0 0 35 35" fill="none" xmlns="http://www.w3.org/2000/svg">
<path d="M17.5 24.7915C17.9132 24.7915 18.2596 24.6517 18.5391 24.3722C18.8186 24.0927 18.9584 23.7464 18.9584 23.3332C18.9584 22.92 18.8186 22.5736 18.5391 22.2941C18.2596 22.0146 17.9132 21.8748 17.5 21.8748C17.0868 21.8748 16.7405 22.0146 16.461 22.2941C16.1814 22.5736 16.0417 22.92 16.0417 23.3332C16.0417 23.7464 16.1814 24.0927 16.461 24.3722C16.7405 24.6517 17.0868 24.7915 17.5 24.7915ZM16.0417 18.9582H18.9584V10.2082H16.0417V18.9582ZM17.5 32.0832C15.4827 32.0832 13.5868 31.7004 11.8125 30.9347C10.0382 30.1691 8.49481 29.13 7.18231 27.8175C5.86981 26.505 4.83075 24.9616 4.06512 23.1873C3.2995 21.413 2.91669 19.5172 2.91669 17.4998C2.91669 15.4825 3.2995 13.5866 4.06512 11.8123C4.83075 10.038 5.86981 8.49463 7.18231 7.18213C8.49481 5.86963 10.0382 4.83057 11.8125 4.06494C13.5868 3.29932 15.4827 2.9165 17.5 2.9165C19.5174 2.9165 21.4132 3.29932 23.1875 4.06494C24.9618 4.83057 26.5052 5.86963 27.8177 7.18213C29.1302 8.49463 30.1693 10.038 30.9349 11.8123C31.7005 13.5866 32.0834 15.4825 32.0834 17.4998C32.0834 19.5172 31.7005 21.413 30.9349 23.1873C30.1693 24.9616 29.1302 26.505 27.8177 27.8175C26.5052 29.13 24.9618 30.1691 23.1875 30.9347C21.4132 31.7004 19.5174 32.0832 17.5 32.0832Z" fill="#1D1B20"/>
</svg>
