<svg width="22" height="20" viewBox="0 0 22 20" fill="none" xmlns="http://www.w3.org/2000/svg">
<path d="M0.848252 10.3675C6.40825 8.85753 12.2683 8.80753 17.8483 10.2375L18.3483 10.3675M2.61825 13.6875L6.07825 17.1475C8.50825 19.5775 9.33825 19.5375 11.7383 17.1475L17.3083 11.5775C19.2483 9.63753 19.7383 8.34753 17.3083 5.91753L13.8483 2.45753C11.2583 -0.132472 10.1283 0.517528 8.18825 2.45753L2.61825 8.02753C0.228252 10.4275 0.0282525 11.0975 2.61825 13.6875ZM18.0483 14.9175L17.3883 16.0075C16.4583 17.5575 17.1783 18.8275 18.9883 18.8275C20.7983 18.8275 21.5183 17.5575 20.5883 16.0075L19.9283 14.9175C19.4083 14.0575 18.5583 14.0575 18.0483 14.9175Z" stroke="#292D32" stroke-width="1.5" stroke-linecap="round" stroke-linejoin="round"/>
</svg>
