<svg width="24" height="24" viewBox="0 0 24 24" fill="none" xmlns="http://www.w3.org/2000/svg">
<path d="M8.52 15.85C8.52 12.68 10.74 10.03 13.7 9.35001L10.22 3.26C10.03 2.92 9.54 2.92 9.35 3.26L4.46 11.83C2.12 15.92 5.08 21.01 9.79 21.01C10.16 21.01 10.51 20.97 10.85 20.91C9.43 19.68 8.53 17.88 8.53 15.86L8.52 15.85Z" fill="white"/>
<path d="M15.21 21C18.0488 21 20.35 18.6987 20.35 15.86C20.35 13.0213 18.0488 10.72 15.21 10.72C12.3713 10.72 10.07 13.0213 10.07 15.86C10.07 18.6987 12.3713 21 15.21 21Z" fill="white"/>
<path d="M17.79 15.09H15.99V13.29C15.99 12.86 15.64 12.52 15.22 12.52C14.8 12.52 14.45 12.87 14.45 13.29V15.09H12.65C12.22 15.09 11.88 15.44 11.88 15.86C11.88 16.28 12.23 16.63 12.65 16.63H14.45V18.43C14.45 18.86 14.8 19.2 15.22 19.2C15.64 19.2 15.99 18.85 15.99 18.43V16.63H17.79C18.22 16.63 18.56 16.28 18.56 15.86C18.56 15.44 18.21 15.09 17.79 15.09Z" fill="#4D8B75"/>
</svg>
