<svg width="24" height="24" viewBox="0 0 24 24" fill="none" xmlns="http://www.w3.org/2000/svg">
<path d="M12 8.90999C12.52 8.90999 13.03 9.03999 13.47 9.27999C14.39 7.56999 15.94 6.34999 16.91 5.42999C17.68 4.68999 16.29 2.98999 13.19 2.98999C10.09 2.98999 9.82999 4.40999 9.82999 5.80999C9.82999 6.84999 10.3 8.37999 10.6 9.24999C11.02 9.02999 11.51 8.90999 12.01 8.90999H12Z" fill="#4D8B75"/>
<path d="M12 15.09C11.47 15.09 10.96 14.96 10.52 14.72C9.59999 16.42 8.04999 17.65 7.08999 18.56C6.31999 19.3 7.70999 21.01 10.81 21.01C13.91 21.01 14.17 19.58 14.17 18.19C14.17 17.14 13.71 15.63 13.4 14.75C12.98 14.97 12.49 15.09 11.99 15.09H12Z" fill="#4D8B75"/>
<path d="M18.18 9.76999C17.13 9.76999 15.6 10.24 14.72 10.54C14.95 10.97 15.08 11.48 15.08 12C15.08 12.52 14.95 13.01 14.73 13.44C16.43 14.36 17.64 15.9 18.56 16.85C19.29 17.62 21 16.23 21 13.14C21 10.05 19.58 9.76999 18.18 9.76999Z" fill="#4D8B75"/>
<path d="M8.90999 12C8.90999 11.44 9.04999 10.93 9.29999 10.49C7.57999 9.58 6.34999 8.01 5.42999 7.05C4.69999 6.28 2.98999 7.66 2.98999 10.76C2.98999 13.86 4.40999 14.13 5.80999 14.13C6.84999 14.13 8.35999 13.67 9.23999 13.37C9.02999 12.96 8.90999 12.49 8.90999 11.99V12Z" fill="#4D8B75"/>
<path d="M12 13.54C12.8505 13.54 13.54 12.8505 13.54 12C13.54 11.1495 12.8505 10.46 12 10.46C11.1495 10.46 10.46 11.1495 10.46 12C10.46 12.8505 11.1495 13.54 12 13.54Z" fill="#4D8B75"/>
</svg>
